<mxfile host="app.diagrams.net" agent="Mozilla/5.0 (Windows NT 10.0; Win64; x64) AppleWebKit/537.36 (KHTML, like Gecko) Chrome/133.0.0.0 Safari/537.36" version="26.2.13">
  <diagram name="PÃ¡gina-1" id="PIex-rj8mvNCpte2KxdE">
    <mxGraphModel dx="986" dy="511" grid="0" gridSize="10" guides="1" tooltips="1" connect="1" arrows="1" fold="1" page="1" pageScale="1" pageWidth="200" pageHeight="250" background="light-dark(#FFFFFF,#FFFFFF)" math="0" shadow="0" adaptiveColors="simple">
      <root>
        <mxCell id="0" />
        <mxCell id="1" parent="0" />
        <mxCell id="4q8cgyD3nparRnlQqXy9-2" value="" style="shape=image;verticalLabelPosition=bottom;labelBackgroundColor=none;verticalAlign=top;aspect=fixed;imageAspect=0;image=data:image/png,iVBORw0KGgoAAAANSUhEUgAAARMAAAC3CAMAAAAGjUrGAAABIFBMVEX///8uQnc4ToU3uuguQngpt+cZKEwbtOYtuOc5T4c2TIOu3/MqP3X2/P7e8vozSH4bNXCN0u/E5/YnPG8XJkm6vswmOmrt+PzU7vlFVIEpQ3+Nov+Dlu1tuv+Ln/8/U5dYwOkeLlY4TIs6TH3C0P9QZLJhdtJNvulxg8ghMl1yiPJldrFvvv+74/VwyOye2PFLXY0aNG+Dzu51h9SUqP8AJWgiPnyJkrDU1+EXN3ljdKmereJOXIZipOVPYJbw8fVcaI6rscV6hqjJzdmaortwfKHO0t1zf6MJMXVmecdXaKaHlsdabbQAIWYAAD0OJleanaYAFkKMms45R3BWjMlIcatYbMJQgbx3h7u5x/1/kdpkqeqotuuIjaFqfdJ5ju3IsZ9CAAAP8UlEQVR4nO1d/UPbthbFjo1jR4mTGJKQfiWFLuN1SUhaKPQjQEtXNrq9t752Leve9v//F0/SlWxJlolD+RhG5yeCiWOdXB3de3RtlpYMDAwMDAwMDAwMDAwMDAwMDAwMDAwMDAwMDAwMDAwMDAwMDNLYPXz2+vXRm+u+jH8Q3mztdbtht7uzc3Tdl/IPwf7BTmADgm539bov5x+A6rM9zghlZWdr97ov6bpx2O3aMoK91/vXfVXXid2tncBOoXuLZWX/7Z6GEcpKcEuXoKO9UJoz0oudg1soK6uhJCShhSGJ7a2Tld0DSUgoIxiO+MvuzuF1X+YVovpaXn+tBOJ0Crr2rZGVwz1x2gSOJUFiZe/gVkygN3hVEUYdWilIs2rvWfW6r/iysa8XEiVUJFnpFltWcCIvTQ0tI6kJtLP243Vf+OVBSeT1QaKVlbcFlRWcyOdmRCMr1335l4D9d3vzhSQ7VOwCughHOYXkDFYK5iL8uICQZE+gYO/ddQ/k4rB7LE8bZz4Xela6W9c9lAvDwaJKIgKJb94pTLK/dWGcFEdoJU502fxZkHyV4nCy5ojjSlV9ZwVJKFtN9eJwguRVNTcr8rvsEBWKE2UO5FOV9FsKxglSv/TFggTSvIJxkjHK3NOmeJyEICHySLNDxUlPmygXJ1WPoHElw2IY0o+sLfgu0NggQyNyMWJFP+XSk6pXKpXKV8pJxcUfeT5OggAGN19WNFMMWejOeuE4CZ4/DxkDSs5xhkfNheThz5FTQE7CFxuzIJw/gXRC0vru+6hocfKSxMls46T7BY84xHGBVMVA+mlDQih6H0UxJ5N5NeCN4WT1F8uyw5nvb7zoMlnRZiuqkCAiJA/uACdP8cKD1ud91I3hZGl1QlXEebERCrIisxIoPQb0bx760YP7lBOyFqOXc63qm8PJ0q8th5AQPu9+wLICiwlStEOjMa1/PaacPHmMGXGcf/9n7gfdHE6OflvuR5iVIMCy8oEEiE8nkJXBCJ020QPOiRXhl05reeW/xYmTw73W8vLKpuVgFQlnMxoeoXYCCZKLHt2NKCdESCwn6uNThN15H3VjONkK/M2V5eVlOoFAN/yPeOkh0WCFvm7aBFYEnMCKhDbx25dDf6cwa/FWgOdKP2aFcvLDvU9OAPmanMKBkNzfIpxEf88IJw5hZKXl+/N9thvDyRoete9b5KvuI4eSgDm592rmqBOIMhKFnBO0HlEhITOPxlOBOAGf2W+RUMGyQqqfj/cwPgYhs2fxlArYj9HvTyLGCReS5b5FZ1g4WZyTDoC/rFWmPYxpRTOINj/W5u+T+jzgraPGsMoPZ3FSE0+UxQmbMEEiK87sFWHlcyj7KLjYi76jnCASQ45FhYRMG5rWLp7bNzwAvBqXPLdM4XqDocLIKDnW6yyppkOnlxwetTv0cFPLyXAgnSiTEy4jVFbIuuyEzqevmBQsNZJNQLJWzMnTdSokMG0S7V2YkwZ5XSqX6Rc2dMnlc5S9nhgGFa8sHhu58omm4mHMCnnl6jhpD5QT6XuKwGejNY7vR2SYRFYwK58JJ7bIycOnLcIJItrqwJ/CwgTzalFOGCUlSknPK8koD5I3TpWDdFzJiXqu5rCOk47ICP1LVzuBuPfIKj+QFTKBQvuVreEEZ/Kk1CFCsgxCwufXgpwAJSWIkqrHL9LDsQ0/jvj7xpwSEvLJePiJRm5yWAiXNCc1j0eSxz9FTwrVkzCZQIKshGlO0M/rXEhWWrYfr0ZoYU54lLDobXoklkuNYaczZFPB60hDwUd7oxHWHIWTSnx4NOqV4khIc1IFGtzyuNZu1yoDFy4gixOx8vMtuphEsC4rnFgoFpIgmTbR3YX9E/juy4N4Qk9dd9BkP7cHZSFQejAUpojtMY+jBhspfeVNYeC1BmMlzckImJ7yT4RLcDW5AcSJaCj5Phn08ibC6b5kKYWPEU/kBSGJImtxn41TIhwtjZOf2/QwrEcd9dKrPVFPxpQTL1mnahl6AufxhE9pwm/Ss4f6bF9OunGoBJKsSEC4KqJTK/LjaWM9ery498go6WX+6bQcj2UkxgwAwgg4gaAQRrrUdrWcUCbLU/E8lE/pvQInHzaehw7Ly6gj64exrEirsSgk4D1G5/AeWdRmU4JX5nhYmi+zlgQcfPuyKFRcDScs9OTF102/meCAeI/+6Un4AtfE8M0zWVnmshIzIiTyTEhwthJzsj2vfYtzwigZnfGnTTqsIR+0HCbSJNR81U0dJ/QnOUx4OKYmz+62Y+F6L7Q3/nQ0skJcBAYpkYfFhnuPf+BMv/52DiVsKOPhWZS0O5XGaAD5m1uJB13J4mSkKWi0nNDhu8O2hHGS3cmkTOgKE55sOF9OHNl7pBOo32pFUWuzLyTyNEYezSTvcS4lLAlha6COkua05NHUmy2nFT4Wr5M+EXBCpcVTTqPjhK1engQ3JUYMv25SEsLAwbIS2OJGD3MRGOJEHtFNDOY9/gRp7W85vUeePqQvpFLm6VpJ4KSnCW+Bk7JGEbSclDKhqdQPVoiW0nrYxrJi23yrK0hkZTlJ5EGInffgs92h3iNdjeaWxRInJU+J2PbAVS9W4KSaPhEdCvw0kE+l5aSsnj3hRBGZpaWjnRav/IglQAMB/5TIim21+v3+ZgukldCFuM8WPfyD+tO0Pg6O5xmyEieppSROQF0c4OUL52SRONkK2ApjObzm8b/6oqHkU9g+DyCc38feY2IrBTk9JTpqeilSxDMNcXGGPm52qs1YWS9q7gzKjPAUvNQ0Jt6jUPkx7/FjoPOpYUuQe493t5BkK+XlxGtAAinKLGSjZXdcE4d1kRo7ylhidFgLlMoPvMd7n9kEcmJWQEhmiPtsREgSN9a283nUNLtugOAnQQtfYkJSwslFrcVjxXM5kxPEDaW48gs/EZft6yc2gXCeiwG5G/PZovcgJJKtlM97dKmiwcoYVyltVRYSTvLkbOUcORtU1+WcnPAVBgaIqPn4mbDyKpTr4uhB7D1SIVGqwUVqwCroAP+CO2owJJxU8+T28lC1uf0SLQ11uYieE8sC64TJikMNpbT32AWfrfWUZPKOpdpKC3kFNck+6cSpfIqTc9SAkCernFSggM7yYNOcpCq/0Jl9/UH1T+5QTqiQWIKQsM6dxTylilgat9UJ0ijHnKS8grbOK0hirFPO8B5ZaIrud0VfYKyJ7SW+YCjhCeTrvcdYSJitxM6woPc4FXW2JI2700vqHdVTik0jxVMawcA7I77gpzhpsmWP2/VV4uFrSYF+NrqkiIaSpfcerSBZf4X62Fnce+QZA3xv8G27pXGzOWxwc51xEnuP7mjUc+Pcjp9oKHqP3hneY+wA4xNNG9MerSS0pBBOfE3lB+m+L3NCN7rAVmoJ/nR0/zy9W21P0FmWs5VdUgPyYbEJURE86lKMxT3qpZFwIl5a6UihnDiO2Pgo7B/LnpIdT5tWEKcsRF3O18/G/KAy0VnuqYuIF6LGBe1lLDXUzQwcNBl+bPjhT4dLZZahRIBYIi9Om+j38/f4iRZkTaiJy67MibrnNVXyr4ayk5W557XULEmld9kb6PaSKScnG1/CbiB0KCWGkkRKJKy/wMhifY+kuhCr0JFHCw5IWaawa4lfl4ZN+qfJYtJmB8nRQWdJJVfZGxXyE3oecdzx5qhLdkf1uf67Ol6Hwxdf7FPezMZa/IJYVhjk9Rd+dZ/1+JH3/TK3UalGUE39psYSsupwGu+g099LhA4bo15vRI9qGhTafA+9LeWx1dR58J/SM/Wm42bW0xb218nC44Th6SlO4Jk9Iqb7wIqjJPIIvEfGCWlpm1zdg5bmNG0InJwX26zF78/uyQu59Z4ZSpubLbAeFSF5HHuPWGjq//uWa1gMdMXKTtOp6Z8rYc3C/q99koYFQZfKChsydA4zF4GDJfKO5D3+THIYp/XbFXKSKgVknLcBNMZ+Fyo/0ueIZQW8x0RWmIsg+tO0yf5J7D2y3dKVydU9taBydiDQZcnLOpoDr7thYiiBWeJLjY9+YLUwLLbRRWMk9h5pbyxtMuj7x5d3e74ihqofqRzW+ZELYSuIUzSH9Tn6SotfbD0yIflL9h5JIOHV6BLvpa15UrIJlkovfj30JMtJZ6ksBnJ/sdxKgDm59zXd4kcCBoSEeY9PQktqMrg0TnCOK2bg7cTApsAFj2ipsr3yb5CTpTWoh4UWP9sm3uMrm7elsHZQWKUfvo97/FRb6bLuBwQHqcTlo8naSPhhWgO6Pc7BOOX1Lo41lKr8Ap+3+LGy2GE9F1HiPdK2C6nJz5q/wXM+sPLGG4yHw0qjxCpHvupUebHbI4enrCvum8KE+idq5cda/O6p3uNPEfceSdMJbzKgyJPbnxM1XjPjxF5TzTZ5gUg3JuBHWWAWBnhKUOMklR84soHqFVCfLbprWbomg0u7l7aa2iKU2jRqpdIAwA9/672p3GdLGUrhxyzvscWrQd5kkNN7PD/kGl+t76sj6bDrZWZzOUHnjpCMiI5s2meL/qIZidItbF02J0ldTCvflFh0hJZir/HND9KDHj+h8VHoHNZ4j1HS5JdUg2h22ZzgYGg2enh6sO7xFEhdPBj0RuNvKv0YwI+FlN0RZYV0Dgc671Ft8sMTKZ9/cmNAOfHJ3ZHUEhA7hy0VcSKPq8Fk2vh5vccbA7i/+JQ8SzhV+aktfmT9XVG2dRbo8bsxgF7QjRNnJvVtxYaSRInaLYwCwXu8rJzt6nE0sRy7++W5T7wTqfLjncMxI6ltHbw6M++RvNguznMf324jJwgD5/RUeJaDKCsRdD5GbFsncWMt7j2STQ60XaQHhK5aE6wiwexD98Opb8uOLBhK/U3oehS3dfCkAZ/tr+/JarxdtKeDHh1T857IShiPWbghgbc9JtMGofj+YpKbTNYK9bhHiv1329S9P6G9oDZr8QM/qdVfIWvNSl+8W+fBXcF7rNeL+bTh3ZfHyApAR/zEUKI3lcJNxX7cRNBC3HsMZ8hCvxT3qdSrqM6sFP+Hj9yRhdfMaMPZLikBWn+vASfPcZCg42I/vfxoG+5v8pMWP+GxH4FNkpAo9h7RY2Q5k/XCPPgyA/t4XSbJyVdo8aPZClpfJ3z49jq9W/TR97H3iKfNdjGFRMbu2gRnK6zFb8bSfWImhAiJ3uOMCMn2bfmvGat1LCuhTW9FVzyl6C54j3e2EMbxy+Ktv5l4RmSF3oquv784womrU0eFqW5ygcgKuRU9xQnve7TQ8e37b00/rmNZocmKGifvqZAULZHPh8M6ZCsKJ8R7nBT530GciSqVFem5FvRunaIm8vmwf7CNREosFBU6kc+HN+FE8tmKnsjnw+GkHjPiTKyiJ/L5UH29XaczCNVv4fqbhf2jl/XjY3RweMuFREXV8GFgYGBgYGBgYGBgYGBgYGBgYGBgYGBgYGBgYGBgYGBgYGBgYGBgYFBs/B+jNsAxQ/D7rQAAAABJRU5ErkJggg==;rounded=0;fillColor=#FFE45E;strokeColor=#FF6392;fontColor=#5AA9E6;" vertex="1" parent="1">
          <mxGeometry x="39" y="99.99999999999999" width="75.14" height="50" as="geometry" />
        </mxCell>
        <mxCell id="4q8cgyD3nparRnlQqXy9-20" style="edgeStyle=orthogonalEdgeStyle;rounded=0;orthogonalLoop=1;jettySize=auto;html=1;strokeColor=#FF6392;fontColor=#5AA9E6;fillColor=#FFE45E;" edge="1" parent="1" source="4q8cgyD3nparRnlQqXy9-1">
          <mxGeometry relative="1" as="geometry">
            <mxPoint x="208" y="227" as="targetPoint" />
            <Array as="points">
              <mxPoint x="147" y="161" />
              <mxPoint x="147" y="227" />
            </Array>
          </mxGeometry>
        </mxCell>
        <mxCell id="4q8cgyD3nparRnlQqXy9-1" value="" style="shape=image;verticalLabelPosition=bottom;labelBackgroundColor=none;verticalAlign=top;aspect=fixed;imageAspect=0;image=data:image/png,iVBORw0KGgoAAAANSUhEUgAAAOEAAADhCAMAAAAJbSJIAAAAxlBMVEX////Y3+Mfs1uvvccZgEMAr0/j9usXsljF29Xg4uru8fPW3uLb4OW618wzuGpJu3cstWF1zZaq0r9cv4MOsVTH1dQAfDnS3t+Kyqebz7Tk8ekAdi4AsE52xpequcTI29eCyaBuw5A0jVen0r3CzdSy1cZhwIdDunOHyaMZhUV7xpqUza5SvX3x9PXN1ty4xc3I3tFyqoYAcyPZ6N9Ml2iqyrVgonkohEsrkVMpn1cYlEseqlee2bOH0qK248bb8+Wb2LC85cvMaqWHAAAJcElEQVR4nO2dfX+aOhTHhS5NUwM6zS3QYZU5q1Pb3d2n3T3fvf83dZEkSASRtCahfPL7a7NR8vXknJycBOz1rKysrKysrKysrKysrKysqvVwrV7YHN6101cvp393Z4gx5XN0qH9xcXdtBFAPX0Z48aHLgBnhxTvtgA/aACnhnaObEGsDpIQXF5pdUaMJOaFmV7zWB8gJNbuixkGaE+p1Rax/lGqeFU3YUK8rmiHU6YqGCDW6oiFCja5oivDiovuEulzRHKGutaI5Ql2uaJBQkysaJdTiikYJtbiiUUItrmiWUIcrmiZU74qmCdW7omlC9WUb84SqXbEFhIpdsQWEiteKLSBUPCu2gVCtK7aDUKUrtoNQpSu2g1ClK7aEUKErtoZQmSvqJHQ+1BAqc0WthO/qjKjKFbUSPt7VISpyRa2ETi2gIlesJ8SyOkH4WEuoxhVr+4Smi5GMFtNTiO9qx6kSV6zrEg5hDKQE1ycR6weqXkI8il1ZxZvTA7XGjHcKXLGO8J5IE8Ll6dD1WDct6iUcQ3lCv0lw7vcfj0kv4QpIE5LkmdOPXsJgCaCcgH8ymraJMB1N4f1YSqvguRmEZkKMJHVyym8boQFZQktoCc3LElpCS2heltASyhJKV6KeXazSTIgC7+yaotpL6iXEkStZiTqtmKzbY0O8APJljNMCK9QWQvSESlQDQb9fc1GthE+pRDUhHNYVAvQSzuQrUQ1EtnW+r5cw8GUrUQ1EiNcaQgf3Z4OzK6mvxuklTCd82VJUA9Vd0GZtltAStkGW0BJaQvOyhJbQEpbU9UoUxldnV78+9dZLiOdufHaBVXtWT4oqUfXHprQSokRNJWpZ97ARrYTdr0ShmRobtqgSNR0SFZWohQbC271qLpYiTvyz67621HYOwt8/3rzZ64/faqcLBYWo+o2Z5xP++debm1cF3dQSGtBzARc3Al/3CBdvXr3qNOHtIV/nCD/edJzwoTRGu0b4d9mEHSP8p/OEb8uAHSP81HnC7tvw384Tfu484bD7hF86T+i+7zoh/Np5QvfroRU7R+i6X0qErdIZCN2vn7+8T/WW6pN3/p2JZ+mS6vYZhKXyZTvlLr/JU1YTtlWQxN+7TZgK+JJmfHGELpREfHmELtl2ndCNf3SdEPpdJ3Tjn10nBDLD9EUSEplJ8WUSvraElrDtsoSW8JQgoTr+Tt6iohmseV/d3wQpJSTxcLxehWG4mmxdUHV6CAJIW2RaTZZxoRXxZ6vxkbvfyHAdjhudR1JHCIE78/oYZdUThPuLpMxIhpuAtWDNrpL8sB8Z9xFCUeUD0eAgSP82b4KojJD4ES4+MSjtfpAcDCyQOIfnYTHyfNZvenqt+vQfye5fQ+sGiKoI40n5dB1Gi2GxSyCsOvyDg2XWCI6zk7LYqxin/G+LBndwqiGEJKo8uYSmyz0imVQf9sVBdh1G4TjL8lVjerLNHCGEiyMnlbmB3OyU6JFaMhplbdgZS7QpYfCn1jU6+6iEkIxyQJwFkr1DMgPtGs0RH7yFei7t+XbXBkSIvaP0+SE1Yb9Jh1QQgg0HxGg62qxmq80i4KMWLWhwhL5DX8FeOGOKmO/i+c5scMAsVYo1cMqaGYql+QHXNC6O02kw03DGxyTrMEno14DXIJ/vgUsPVmIn+xYA+9/iAITcs7dum/RHBeEVH5JJnL8BEtZ7B0+zF0lEuy88ABS6zGw+LHwJ9H+FPrM4c2Voxs+NEwyEHkDoFUcdmNM4MhEaMbNRR3RJvyrW8DiDm8yGSgi5rQ6TKuhTN8NekfBe+EywKBICZudA+CQS0gjklCKQHkK4ZCYsB3kyKwRHTiiGESIQ8s8SG8Xsi5o3e2DD2QlzjKq2Wd/wNGvH7DMX8k7CuJnnsfEg5DWQxRk0MLS2ACN8xIScHm12FuHu6myLDdNEJn074kR5owIN4HGm4TM3zk4YXxXH2eHVNrvVAh2BPF4E6+JKj0wclCbf/IVyXsMf3dIo61ZDyMbQkcsNBzz5JiOGiIKNT/LuEjjw98Q8r5nuPyHkztw0wTq7H9IO9I99w/sZcpBncqnVkmG+LoSFq1TkNVOpOKMilqKKAF996c0+Pd8ZchBXvAccxJo8n2l8S5VBwnRqKKxA0vzbS8q1F77EyqPrSCafMU2YzonCKhKj/sY/ZOR5TZQZEfoMuGmcMUzogmR6wIhHS/Gd+RqK5nEha96UzzRhGjknnngjE3YSMQsdMMej2axcPtMCwrQDxI+EehRGa6H7eV5D9nGmaT7TCsJd2ZFMPGdvSCzm7PlaJaUCUusmRYSN50O3MPMRMIjyKkAKIFwnz2sIL+1IxBmFOU1107STkI9BCPzCNE+GiZdXOoS1RB5rduVH+i+/+SBVQEhzjmpPAWGav2zYzDaeFjPQnSGXc166EbLxZZ7XyOYzSgjZ2qKiBphebJ2tLUJC+71bRQgeBeOQjQBhFMY81mxl6jPKCMmqal3OCMrrQyTWe9lsIL6axxpPbt2kiDBf45d/vYOacOdGbrMqRv6ZQu1Y8h54ZXUa7AwOOsIfFIA9KElIomIJHcvt8SkgnPBam5h/QX4bPS2vVddpxFpb/tZBMSOQijNqat5XfPU+jguRku9lsNVsZZ1GrJcWelm4Bb+6eqCVkPBNI4zSNJpWtAFM+G4bq5Dm4SOJC7vczMz4YFu0sE1Fx7hZQjfO3Qajq2g2mUxW8zxjwR7ft+AvLNYTpnDKqEelgZjvRkrlM6oIi4MKZ8/3xIW9Jz4AeZ2m+NwFbubSAp7VhmXzGWWEcOgd2z/E23z/cHDsiU+lrZj9HCQdZ9TtAY8q94BxsN13/thDqyvNFPO9Ask4o3Aff1V+YFXhFAJFrNwKx/1thaexwISvpH+rTt1ZjDSNFoYhRsEMih8AZqWBmsamZXUoCRqfvtBEmI5Uf5OuHtgud7qMWLvl8zT+XDhOg8rfQt70fvfnsocaJMxuWvGT1SaKos3qflhVDd0dK0rCiGsz21a2oj31wyh5wvPBFZ9rg9UH1oQeHD/XVv4s2eu79myiJXwJsoSWsP2SIpRN61shqXtmpLPeNgh8kyD8T8mDHhVL6t61S/kfoTYuOJQA7PWanY5vlaRuzkuN+OII4VIKsNf7peTHf9QJupeShL0fDe9UaYfIUBqw1/tZeeyljYIEvH6QB0z16zU596/FqVA8/P4EA3LdXrZfT6ezsrKysrKysrKysrKysuqQ/gerM59E1TzqcQAAAABJRU5ErkJggg==;rounded=0;fillColor=#FFE45E;strokeColor=#FF6392;fontColor=#5AA9E6;" vertex="1" parent="1">
          <mxGeometry x="95" y="143" width="36.57" height="36.57" as="geometry" />
        </mxCell>
        <mxCell id="4q8cgyD3nparRnlQqXy9-24" style="edgeStyle=orthogonalEdgeStyle;rounded=0;orthogonalLoop=1;jettySize=auto;html=1;strokeColor=#FF6392;fontColor=#5AA9E6;fillColor=#FFE45E;entryX=0;entryY=0.5;entryDx=0;entryDy=0;" edge="1" parent="1" source="4q8cgyD3nparRnlQqXy9-5" target="4q8cgyD3nparRnlQqXy9-11">
          <mxGeometry relative="1" as="geometry">
            <mxPoint x="371.62261962890625" y="273.39" as="targetPoint" />
          </mxGeometry>
        </mxCell>
        <mxCell id="4q8cgyD3nparRnlQqXy9-5" value="" style="shape=image;verticalLabelPosition=bottom;labelBackgroundColor=none;verticalAlign=top;aspect=fixed;imageAspect=0;image=data:image/jpeg,/9j/4AAQSkZJRgABAQAAAQABAAD/2wCEAAkGBxAQEBAPEBAQEA4WFRYVEBAWDxAQEBgWFRUWFhcVFRcYHSggGRolHRUVITEhJSorLi4uGR8zODMtOSgtMCsBCgoKDg0OGxAQGy8lHiUtMS0wKystKy0uLS0tLS8tLS0tLy0tLS0tLS0tLS0tLS0tLS0tLS0tLS0tLS0tLS0tLf/AABEIAKgBKwMBIgACEQEDEQH/xAAcAAEAAQUBAQAAAAAAAAAAAAAABgIDBAUHAQj/xABMEAACAgACBwEMBgMOBwEAAAAAAQIDBBEFBhIhMUFRYQcTMjRScXKBkaGxsiIjM2JzwRRC0QglNVNVdJKTorPC0tPwFyRDgoPh8RX/xAAaAQEAAwEBAQAAAAAAAAAAAAAAAwQFBgIB/8QANBEAAgEDAgMFBwQBBQAAAAAAAAECAwQRIVESMXEFIkFh0RMzgZGhscEyNHLwQiNSouHx/9oADAMBAAIRAxEAPwDuIAAAAAAAAAAAAAAAAAAAAAAAAAAAAAAAAAAAAAAAAAAAAAAAAAAAAAAAAAAAAAAABYxOKrqjtWThCPWUlFe8Avgj+I1wwMN3ftp/drnJe3LIxJa+4Ncrn/44/nIk9jU/2sjdamv8kSsEXr18wL4ysj56pP5czaYDT+ExD2ar4Snyhm4z9UZZNnx05rVpn1VIS0TRtAAeD2AAAAAAAAAAAAAAAAAAAAAAAAAAAAYePx1VFcrrZKFcVm5P4Jc2+SXE5PrDrzib7H3icqKF4MVkpvtm1z7Fu8/EnoW86z7vLcrXN3Cgu9z2OyA5loPW3EwhCUn32LW+Lbz7dmXH25kz0ZrFh78o7Xe7PIluz9F8H8T3Ws6tLVrK3RFb9oUaz4U8PZ/jwfwZugeZnpVLwAAAAAAAABiaTxSpptuaz2IuWXVpbl7Tl2Ew2J0le/pbU8s5Tk3sQjnwXRdEv2nQ9cPEcR6K+ZHP9UtPRwds3ZFyqmkpZZOSae5pc1ve4u2yapylFd4pXDTqRjLkWdYNXrsFsubjOuW6M455Z9GnwZopMluums9eLhCmlS2FLblOS2W2k0kl03sh8mW6Tm45nzKlVQUsQ5HkmUbXNceTPWy3Jns8HTu55rJPEKWFuk5WwjtVzfhSgmk1J82s1v5p9hODjvc4l++NfoWfKzsRl3MFGpoaltJyhqAAQE4AAAAAAAAAAAAAAAAAAAAANfpfStOEqd10tmC3JcZSfKMVzZY0/p2nBVOy173n3utZbc2uSXxfBHGdP6cuxtrtte7hXBP6EI9F29Xz9hbtbWVZ5ekdyjeXsaCwtZbflmTrNrHdjrNqf0aov6utP6Me19ZdpopnuZ5I3oQjBcMVoc5OcqkuKT1ZJdGfY1+b82ZJiaM+xr835syiQqy5s2+i9YsRRklLbr8iWbXqfFfDsJvoPTVeKi3FOM4+FB72s+DT5o5iSXUJ/wDMzXLvcvmgZ17a03Tc0sNa9TV7OvKqqxpN5i9NfDp6cifgAwzpgAUyeSbe5cwA3lve5Gut09hIvKWJpT6d8i/gc91n1inipyjGTjhk8oxTa2sv1pdc+nIj0mXYWeVmT+BSneYeIr4nVNLaVwOIpsoeLqiprJyUk2t6f5EVegNGfyiv7BEpMtSZPC34FiMn9PQglX43mUU/n6kver+jP5SXsgYOmdD4CqmdlOOV1qy2a/o785JPh0Wb9RGmyiTPapyT/U/oeHUjj9K+vqJMtSYky3Jkh4JT3Nn++NXo2fIzsHf4eUjjvc0/hGr0LPkZ06x7352YHbF1KhKLis53NWxgpQfU2kbYvcmvaXTRtmxwN+0snxXwKFp2h7afBJYfgW6lLhWTLABpkIAPnz90TiJw0hhdic4p4ZZ5Scf+rZ0APoMHx5qlpK6OPwclbY2rq2s5ya3SXI+udHWudVcpcXFNgGUAWMXOUa5yitqSjJxj1aTaQBqtZNYasFDOX07X4FSe99r6R7SOaH7oO1Zs4muMIPhZDaez6Ud7a7V7CB4vF2XTlbbJzslvlJ/l0XZyMc3qfZtNQxPV77dDl6va9WVTip6R236/9YO/U2xnFSi1KLWcZJppp80y6ca1c1muwcsl9ZQ39Ktvd54v9V+58zqeh9L04qvvlMs1+tF7pxfSS5fAy7m0nQeuq39djbtL6ncLC0lt6bmyNBrPrJVga9qX07ZL6upcW+r6R7fiYut+tleBhsRysxUl9CvPdFeXPoui4v2tcfx+OtvsldbNzsk83J/BdEuSJLWzdXvS/T9yO8vlS7kNZfb+/wDpd0tpS7F2u2+W1N8FwjFcoxXJGEUg3EklhHPSbk8vmVFM2ZGCwll041VQlZZLwYpZv/0u17kdV1S1Grw2zdiNm3EcYrjXW/u5+FL7z4cupBXuYUV3uexYtrSdeXd5eL/vMhOCqlCuEZxlGSSzi04yWe/enw3NGQbPWjxzEekvliaosU5cUFLdJ/Mo1o8NSUdm18mVEj1B8Zn+FL54kazJNqB4zP8ACl88SK79xPoWLD9zDr+GdAABzJ2ANLrfiu9YK+S3NpQX/e1F+5s3REu6RPLCQXW2OfqjNklFZqRXmR1ninJ+RzZsokxJlEmbJjHkmWmz1s2WitXsXi1nTU3D+Mk1CHqb4+rM8uSSyz3GLeiNVJluTJg+51jvLw39bZ/kKH3N8d5eF/rbP9Mj9tT3JPYVNiGyZSTF9zXH+Xhf623/AEy/he5piNpd/vorr5uDnZL1KUYr3nl16aWXI+qjUfgWe5Zg5Sxkrsvq6q5bUuW1Pcl7Np+o6DOWbbLGAwdOEpWHw6ahxnN75Tlzbf8Avoits4ztm+hcVUockbllbulDXmetl/AWZWLtzX+/YYrZVh5ZTh518TJoVOCtGS3X3Lk45i0SAAj2v+Lso0XjrqpyrthTKUJxeUk1waO0MwkJ87/ukP4Qwn81X97YQ7/iLpj+UcT/AEzT6a05isbONmKvsvsjHZjKbzajm3kvW2AV6q+O4X8WHzI+wdEfYVeivgfF1F8q5RnCTjOLTjJcU1waJHDug6XilFaQxKS3JbYB9dg5J3DtacVi67oYq6d8u+fRnOWcktiP0V2Z5nWwCCa46mqzaxOFjlZvc6l+t1lDpLqufn484kmtz3PmuZ9BEO1w1QjiE7sOlHEcZR4Rs8/SXbz59VqWV/wYhUeng9uvl9unLF7Q7N4/9Slz8Vv08/v158tMnR+kLcPNW0zcJrmuDXRrg12Mx7IOLcZJqSbUk+KaeTTKczaaUlh8jn03F5WjRjY52SnK2cpWSk85Tbzk32lhSM/MxrsPzj7P2HlxxyJY1OL9XzLJutXNW8Rjp7NS2a0/rLZJ7Eez70uxevLibrU3UWzEqN+JzrwzycIZ5WTX+GL68Xyy3M6zg8LXTCNVUIwrisoxSySMy5v1Du09Xv4I17Xs5z71TRbeLNbq9q7h8FXsVRzm/DteTsl53yXYtxuQDHlJyeW9TdjFRWIrCOWa0eOX+lH5YmrNprT45iPSj8sTUnU0PdQ6L7HGXHvp/wApfdlRJtQPGZ/hy+eJFyT9z/xqf4UvngeLv3E+hLYfuYdfwzoQAOYOvBFe6NVtYLa8iyDfrzj/AIkSo12n8F3/AAt9K8KUHs+kt8feke6cuGaZ4qR4oNeRxSTLTZVL2dhQ2bJjG/1M0GsZe++fYVpSs7fJh68nn2J9Tp07dyjBKEFujFLZWS4cOXYRbuZJfouJlzdiTfYoR/aySHJ9u3M/aKknobnZ9KKp8XixmMzxspbOcbNHB65FDZ42UtkcpHpI9bKWzxspbI3I94PWyrCrOyC7V8Sy2Z2iKs5uXKK97PdrB1a8ILf6LVio+GDZuzS636KnjMDisJXKMbLapQjKWeym+byTZugdwZJ8x2dx7SKbW1U8nxSty+UiutmrF+jbYU3uLlOG3HLayy2pR5pc4s+xj53/AHSH8IYT+ar+9sAOXaOwjutrpi0pTkopvPJNvLfkTmvuR6Qkk1Kpp8HlZ/lIjqr47hfxYfMj7B0R9hV6K+ABzXuRap4nR0rI3pPak5KUdrLwUsnmlv3HVweMA9Oaa869eFhcFPfwtxEXw+7W+vWXLl1WFrzry7trDYSWVO9WWrdKzrGD5Q7f1vNxgJq2ll/nU+C9fT5mPe3/APhT+L9PX5FdN7i9+9e8zVJPeuBrsjcasaBxOMs2KI/Vp/WWSzVcfXzl2Lf8TVdRQWZPQxvYuq8RWpjnuZk6R0fbh7JU3QcJrlxTXKUXzT6mKSpprK5FeUXF4fMkWrGtd2Dahvtw+e+tveuri+T7OD7OJ1bROlacVWraZqUea4Si+klyZwczNF6Uuwtitpm4S584yXSS5r/aKF1YRq96Okvo+vqaVn2jOjiE9Y/VdPQ72CNasa2U41KDyqxGW+tvdLq4PmuziveSQwp05QlwyWGdJTqRqR4oPKOWa0+PYj0o/LE1WZtNa/HsR6Ufliak6ih7qH8V9jjrj30/5S+7KsyT9z7xqf4MvngRYk/c+8an+FL54Ed57ifQmsf3MOv4Z0QAHMHXAAAHP9bdSp2WSxGFSbk87KW1H6T4yg3u38cmQ+WrOPW79Eu/o5ncAWIXM4rHMrTtYSeeRCdQMBdRhcRG6udUnZmlJZNrZis0bps2uM8CXmNO2cz21U4q6b2/JpWkFGHCj1s8SbeSWb6FDYjY4vNPJ9TG4lnvcv7voW8bF14azyH7Cl4azyH7D142zy37il463y/ciVuz3n/xPmKnl9Tx4WzyH7Cn9Fs8h+wytH4ucrFGUm1v3buhuS9a9m29zDjjKSWca8JFUrzpvDS+pHYYC2Ty2Wu17kbrC0KuKit/V9WZANW07OpWz4o5b3ZXqVpVNGAAXyEHCe77oDF4jGYa6jD2W1Rw6hKcVnFS75Y9nz5Ne07sW7aYzWUkpLo1mAfJer2reNrxeGnPDWxhG2DlJx3JJrNs+rNEfYVeivgVf/n0/wAXD+ijIjFJZLcgCox8XR3yuyttpTjKOa4raTWa9pkAA+d9N6HuwVrpujk+MZLwJx8qL6fA1+Z9B6e0JRjKnTfHNcYzWSnCXlRfJ+58yP6D7nWFw9nfbJyxEk84RlGMa0+Tcf1n593YbEO0Y8GZrXy8TEq9mT48Qfd8/D1IhqfqLbitm7EbVOF4pcLLF93yY/e58up1jAYKqiuNVUI11x4RS3eftfa97MtHpnV686zzLlsadvbQorEee/iabWDQVONr2LFlNfZ2Lwovs6rqufsZyDTWibsJa6ro5PjGS8GUfKi/y5HeDW6a0RTi6nVdHNcYyXhxflRfJk1peOg8PWO23mive2Ea64lpLffyZwk8NtrHoG7BWbFi2oPwLEvoyX5Pqv8A6ag6KE4zipReUczOnKEnGSw0Vwk0002mnmmm001wafJnQtVNfPBpxssuUcRy80+npe3qc7KZEVe3hWjia+Piia2uZ0JcUH1Xgyaa0STxl7TzTlFp8VlsRNWY2B+zh5jIJKcOCCjskvkQ1JcU5S3bfzeT0k3c98an+FL54EYJP3PPGp/hS+eBDee4n0LFj+5h1/DOigA5c64AAAAAAsYqOcJZdDSNkhZrcXo7PfDL0f2GP2paVKuKlPXGjXoWbeoo6M1zZQ2V21Sj4UcvVu9pZbOYqZi8S0fnp9y/HD5FytrajteDuz82e8318Y7DTy2cvV6iOpZ8N5l04K2eS4R7W0vYaXZ11KmpwhT4+Lbp4+RBXpptNyxg90RFuxPonn8DfGNhcNGtZLe+b5syTf7OtpW9BQlz5v0+GCpXqKc8oAAvEIAAAAAAAAAAAAAAAAAAAABhaS0fVia5U3QU4PlzT5NPk11OQa06s24GfOdEn9XZl/Zn0l7ny5pdsMfGYWF0JV2RU65LKUWs0y1a3c6EtNV4r08ynd2cLiOujXJ+vkfPmZ5Jkn1w1SngpOyvOzDN7pcZQb4Rn+UvVx4xaR0dKrGrHig9DmKtGVKfBNam5wL+rh5vzL2ZYwP2cPN+ZkVwcmoxTlJ7lFJtt9iXElbwRPmMyU9zqLeJtlluVbTfbKcMl/ZfsPNEal3WZSufeYeTulN+rhH1+wm+itF1YWGxVHJcZSbzlJ9ZMyr6+pezdOLy38vma9hYVVUjVmsJa6838DPABhHQgAAAAAAHjKJTALhb71HyV7EW3YynvrPjWeYL8YpcEkVmMrWVxsZ9BeBTGRUAAAAAAAAAAAAAAAAAAAAAAAAAAAAWrqozi4ySlFpqUWk4tPimuZzPWLud2KxzwezKp7+9SnlOPYm90o+d5+fidRBNQuJ0ZZg/Qgr21OusTXR+JzrQmoduUf0iexFfqpqVj9fgx95NdG6IowyyqrjF85cZvzye82APVe6q1v1vTbwPNC0pUdYLXfmwACuWQAAAAAAAAAeNHoAKHWjzvSLgAKO9I9UEVAA8yPQAAAAAAAAAAAAAAAAAAAAAAAAAAAAAAAAAAAAAAAAAAAAAAAAAAAAAAAAAAAAAAAAAAAAAAAAAAAAAAAAAAAAAAAAAAAAAAAAAD//Z;rounded=0;fillColor=#FFE45E;strokeColor=#FF6392;fontColor=#5AA9E6;" vertex="1" parent="1">
          <mxGeometry x="215" y="200.96999999999997" width="91.2" height="51.24" as="geometry" />
        </mxCell>
        <mxCell id="4q8cgyD3nparRnlQqXy9-6" value="" style="shape=image;verticalLabelPosition=bottom;labelBackgroundColor=none;verticalAlign=top;aspect=fixed;imageAspect=0;image=data:image/jpeg,/9j/4AAQSkZJRgABAQAAAQABAAD/2wCEAAkGBxISDxEPEhAVDxAPEBMVFRcVEhUSFhcYFRMWGhkYFhYYHSggGBomGxYXITEiKCkrLjAuFyAzODMtNyguLisBCgoKDg0OGxAQGi8lICYtLS0wLTUtLS0tLS0vLS0tLS0tLS0vLS0tLS0tLS0tLS0tLS0tLS0tLS0tLS0tLS0tLf/AABEIALEBHAMBEQACEQEDEQH/xAAbAAEAAgMBAQAAAAAAAAAAAAAABQYBBAcDAv/EAEYQAAIBAwEEBgUHCQYHAAAAAAABAgMEEQUGEiExBxNBUWGRInFygaEUMlKSsbPBIzM0QnSistHhNUNTYoLCFSRUY3OT0v/EABsBAQADAQEBAQAAAAAAAAAAAAADBAUCBgEH/8QANxEBAAIBAgMEBwcDBQEAAAAAAAECAwQREiExBSIyURNBYXGBkaEUFTNSseHwNELRFiMkQ8EG/9oADAMBAAIRAxEAPwDuIAAAAAAAAAAAAAAAAAAAAAAAAAAAAAAAAAAAAAAAAAAAAAAAAAAAAAAAAAAAAAAAAAAAAAAAAAA0dW1ajbQ6ytNQi3hc25PujFcWdVrNp2hza8VjeVWq9JVuniNCtJd7UI/7ieNNbzQ/aa+TNLpKtn86jWj7oP8A3CdNbzI1NfJY9G1+3uk+pqKTisuLTjJeuL448eRDbHavVLTJW3RJnDsAAAAAAAAAAAAAAAAAAAAAAAAAAAAAAAAAAAA5nthXpz1ilC5eLelCKfPHpRcuOO+W6n4IuYomMUzXqpZZj0scXRW9qZ20rlu1SVLdjndTjFyy8uKfJYxy4E+Li27yLJw8XdRBJsjSezN3Kle29SLx+WhF+MZyUZLybI8lYmku8c7Wh3QzGmAAAAAAAAAAAAAAAAAAAAAAAAAAAAAAAAABq6nqNO3pSrVZbkI+9tvkku1+B1Ws2naHNrRWN5Um56TYptU7Vyj3zqKD8lF/aWY0s+uVedTHqhCX+09pcVOtr6dvzaSbVzNcFy4JJElcV6xtW30RWy1tO9qta71TTnFqGnSUscG7max48G8n2KZI/ufJvj9VVcJ0Lb0j9Jof+el95E5t0l1XxQ7Lca3uTlDq87rxne/DB5DN2xGLJNODpO3V6LHopvWLb9W9ZXsKqzHmuafNGhpdZj1Nd6fL1q2XDbHO1myWkQAAAAAAAAAAAAAAAAAAAAAAAAAAAAAAAcz6VrxutQoZ9GFN1GuzMpOK8lF/WZc01eUyp6mecQopbVWAAAPqY2RsnWvaEUvRp1I1JvsjGm95t93JL3kWe8VpMykxUm14iF8r1N6cpfSk35s/Mc1+PJa3nM/q9jjrw1iPY2NJrONaHdJ7r9/9cFvs3LOPUV9vL5otVSLYp9i1nsWIAAAAAAAAAAAAAAAAAAAAAAAAAAAAAAAHJ+lGP/PxffbQ/jqF/TT3Pio6nx/BUCwrrnoGzFHqKdxcqVSVZb1OmpOCUeyU5Ljx5rHZ8MXtPtaNLtWsby0tFoPTRvPRLrTrRcFZUve5t+bZhT/9DqN+kfVp/dWEemWf/RU/rVP/AKPv+otR5R9T7qwtmlKMIuFKnChCXzlTju73tPmyhqu1dRqI4bTy9ixh0WLFziOb4M1be9gs1aftx+0s6SJtnpHthFn/AA7e5cD27CAAAAAAAAAAAAAAAAAAAAAAAAAAAAAAACi9J+jTqU6d1Ti5OinGaSy9x8VLHcnnPtZ7CzprxWdpVtRSZ5w5i3wLyk61fUtxwpclSo04fVij897ZtNtVPuh6zQV2ww1jKXAAAAldBtG59a16Mc48W+42ex9Na2T0sxyjp7ZUdbliK8EdZWI9OywAAAAAAAAAAAAAAAAAAAAAAAAAAAADxu7qnSg6lScacI85SaivifYiZ5Q+TMRzlWrzpAsoJ7kp1n3RptfGeETRp7oZ1FIVmr0i3MqsXCnThS345jhzk1lZW9lccdyJvs1Yjmh+0WmXQ56PbSlvStqMpd7pQb88FTjt5rXBXyQuufn5eqP2I8f2v/VT7o/Rt6P8KGgZq027S9cPRVOEm++GZP4l7Tay2KOGtKz8Oavlw1t3ptMfFtfLJdZGE6FNZlFPMOPF9nEt/a7zlrjy4q85j1eaH0NeCbUvPzTKsaXPq4/VRuxotPHP0cfKFD0+SY8UthIsxG3REyfQAAAAAAAAAAAAAAAAAAAAAAAAAAABB7V7RRsqSm4OpOo2oR5LKXFyfYiTFj452R5cnBDkesaxWup9ZWm5Y+bFcIR8Ix7PXz8TQpStY5QoXvNurQO3C59G+hRr1ZXFTjC3cd2PfN8U34Lnjva7itqMk1jaPWsYMcWnefU6oUV5C65YSk1Ugt7hhpc+HJrvMLtbQ5Mloy4439Uwv6TPWscFkHKLXBrHr4HnbVms7WjZpRaJ6SzRqbsoyXOLTXuOsd5peLV6xL5esWrMSmrWlOtVjVnDcjBcOfFrlz8TfwYsuqz1z5K8MV+rOyXpixzSs7zKbN5QAAAAAAAAAAAAAAAAAAAAAAAAAAAAAAGlquk0bmHV1qaqRTyuaafemuKOq2ms7w5tSLdXENXtOpuK1HspVZxWeeFJ7r8sGlSeKsSzbRtaYah25Xbosv8Adualu/m1qe8vag+z1xk/qlXU13jiWdNbvbOolJdVrbnaGVnRg6aTqVZ4WeKSisyeO18l7yXDj455oc2Tgjk9r3VpqbUVFx4NZWeDin3+J5nW9pZsOe2OIjaPOP3a+n0tL44tvLxhrM1+pT+q1+JXr2vl38NflP8AlLOip5ysiPUMlk+gAAAAAAAAAAAAAAAAAAAAAAAAAAAAAAAcW26SWpXOPpQ83Shk0cHghnZvxJQJMib+gah8nuqNfspzTl7LypfutnGSvFWYd0tw2iXdqdRSipRalGSTTXFNPk0ZbTc66WLmLlb0U05RVSUl3KW6o+eJeRc0sdZVNTO+0JBT3o0pfSoUH50YHhe1421l/wCeqHo9DO+Cr6pLMorvkvtKGKN71j2x+qxfwyup7158AAAAAAAAAAAAAAAAAAAAAAAAAAAAAAAMN4We4DgeqXrr16td/wB7UlJeCb4L3LCNWleGIhl2nitMtU6cgExY7UXdGj1FKu4U1y9GMms9kXJPCI7YqWneYSxltWNolFV60pyc5yc5yeXKTbbfi2dxERG0I95md5dLt1+Rt/2W3+5gfn3bUf8ANu9V2f8A09XpRliUX3ST8mZuK0VvW0+qYlbvG9Zj2LpFprK4pnvImJjeHn9tmT6AAAAAAAAAAAAAAAAAAAAAAAAAAAAAACN2luuqs7ipnDjRnj2msR+LR3jje0Q4yTtWZcKSNRmAAABP7N7J17tqSXVUO2pJc/YX6z+HiQ5c0US48Vrr3qVuqco0o/Np0qcVnniMUlnyPB9szvqpn2Q9PoY2wxDVMpcSuh3klNUs5i848MJvyNrsnV5IyRhnnE/T9lHWYa8M3jqsR6ZlgAAAAAAAAAAAAAAAAAAAAAAAAAAAAADmfSVtBvz+RU36FOSdVrtmuUfUub8cdxd0+PbvSp6jJv3YUQtKoAAufR1s9TuJTr1o79OjJRjF/NlLGXvLtSWOHiVtTkmvdhYwY4tPFLqcY4WFwSKC8rWvfn37MTyvbH9T8Ia+i/C+KOMpbWLQ7JRgqj4ymuHgj1HZOjjHjjLbxT9IZOszTa3DHSEqbCmAAAACr9IOr1rW2p1KE9ycq6i3uxlw3JvGJJ9qRNgpFp5oc95pG8Kha7RaxUip01UqQecSjbRknh4eGod5YnFijr+qvGXLPRl7Y6nbzj18OEv1atHq8pc91pL8R6HHbw/q++myV6uj6HqkLq3hcQTSmnlPnFp4a9zTKd6zWdpW6Wi0bw3zl0AAAAAAA57t9tNdW10qVGqoQdCMsbkJcXKafGSfci3gxVvG8qubLattoX+jLMYt83FfYVJWYneH2H0AAAAAAAAhtrdY+S2k6q/OS9Cn7cuT9yy/cSYqcdtkeW/DXdxKUm22222223xbb5tmmzWAAADtGw+mOhY0oyWJ1M1J+ufJPxUd1e4zc1uK8tHDXhonyFKrGvfn37MTynbE/wDJ+ENfRfhfFHmWtrdpv5mn7EfsPbaL+np7oYWf8S3vbJaRAAAAApPSx+h0f2lfdVCzpvFPuVtV4Y96Q6Of7No+1V+9mcZ/G70/gQPSfq9GdOnbQlGpVjV35brTUEoyWG12ve5eHqJdNWYniRam0T3W7sp11DRpVacN6rLrKlOO65Zy0l6K4vOM+85y7Wy7S6xbxi3hGK812fpKEoLu6uhH4T4ncRgj+S43zy+tG21uqdzG3vYppzUJNwUJwcsYbS4OPFdnJ5Pl8FZrxUKZ7Rbhun+kPVa1tbUp0KnVylXUW92Msrq5vHpJ9qRHgrFrbSlz2mtd4V+htVqFzShTtaTc4QiqtXci2544tZ9CPfj7CWcWOs72lFGXJaO7DxsNs7y3uFSvPSjvJTUoRhOKf60XFJNdvbkThpau9HyM16ztdfNotZhaW8q8lvcUoRTxvSfJZ836kytjpN7bQtZLxSu7n9DaTVrpylbpqMXxVOlBxXhvVE+PvLc48NfEqRly26K/tPdXNStm6i4VoUlHjDcbinJp45Pm+K4cCXFFYju9EeSbTbvOua5dVqVlKpQh1laMae7Hdc85lFP0VxfBt+4z6RE22letMxTeFN+Va7P0lGUV3blCPwlxLMRg/m6vxZnrs7trcK5ja3kU3Kap725uTjNvC3kuDTeFyXPJ8yYK8PFR9pntxcNk3tztPKzjCFKKdaqpNOXFRjHHHHa3nh6mRYcXH1S5svB0VujV12pFVIue7JZXC3hwfL0ZYfmTbYI5T/6h3zTzWPY6+v5VKtK9g47kIuMnTUcttp+lH0X7iLLWkRE0S4rX32stRAnAAHMela9buKNBP0adLfftTk18FH94u6WOUyp6mecQoxaVQABbNg9mXcVVXqR/5elLPH+8kv1fGK7fLvxX1GXhjaOqxgxcU7z0dbKC8AVfXH+Xl4KP8KPI9rTvqrfD9Gzo4/2oaBmrK26Y/wAjT9hfYe10PPTU90MLP+Lb3totogAAAAUnpY/Q6P7SvuqhZ03in3K2q8Me95aBpsrnQVbwaU5upuuTaWVcN8Wk+HAZLcOXeXylZti2h86N0cQhJTuKnW4/UgnGP+qT4teR9vqZnoU00R1WTaTWYWVt1m5vPKhTgvRTeHheCST8iHHSb22TXvwQqFjr2r3UXVoUodXlrKjCMeHYnUll+4nnHirysrxky251hWddqXMrxO6ioV/yaaWMYWMP0W1yJ6cPD3eiG824u91XjpX/AESj+0r7qoVtLPen3LOp8Me9v9HH9m0vbq/eyOdT+JLrT+CFO6U/06P7ND+OoWNL4Pir6nx/BMdKLfya0X6u+8+vc4fDJFpfFKTU+CE/sDGK0233e1Tb9rrJZz7yLN45TYduCNlH6VP06P7LD+OoWtN4PiranxL1tJr6srWFTd36k8RhHOFndy233JfgVcePjtss3ycFYVey1nWLmPXUaUOrbeMRpxTw8cOsll+snmmGs7TKCL5rc4Vu6nXlqcJXMVC4dxb76WMLHVpcm183D5k1Yr6Pu9NpRTxek73VdukbZ6rcKlWox6yVJSjKKay4tppxzzxx4eJW0+SK7xKxnxzbnCDp61rFOCXU1N2nHGZWzbwl2vHHh2kk0wz6/qj480R0+if2I2vndzlQrRiqig5xlFNKSTSaab4Pivj3EWbDwRvHRLhzcc7SuRXWAAByXpOpNX6k+U6EGvc5L8PiXtNPdUdRHf3VIsq4BI7OafG4u6NCUnGNSTy1zxGLk0vF4x7zjJaa1mYd0rxWiHcLW3hThGnCKhCCSilySRmTO87y0oiIjaHsfH0AqeryzXqetLySPG9pW4tVf+eqG3pY2xVahRTrXpL/ACFP2fxZ7Ps+d9NT3MPUxtls3C6hAAAABTelGhOdpRUISqNXKeIxcnjq6nHC7Cxp5iLTur6mJmsbebf6PqUo6dSjKLhJSq5Uk4vjVl2M5zzvfk6wRtRYyFMrm3eizurXdpcalKopxjnG9hNNZfbiXwJcN4pbeUOak2ryVDQtbv7Sl8lVlOajKW7vUauVvNtrgvSWW37yxfHjvPFxIKXvSOHhR+t6ffzr07m4oS3qzj8yOVFRaWGo53eHf3neO9Irw1lzet5txWhcOlChOdrRUISqNXCbUYuTx1dTjhdhX00xFp38k+o3msbN7o9oyhp1KM4yhJSq5Uk4vjVk+TOdRO+SdnWniYpG6o9JtnVneRcKU5r5NBZjCUlnfqcMpc+JPprRFOc+tBqKzN+ULrtLonyuzVFNRqR3Zwb5KSWMPwabXvK+O/BfdYyU46bKDp91qen71KNCbi3ndlSlVhntcZQ7/WWrRiyc91Ws5cfLZqanbahfVetna1HPcUFilKnFJNtLMuHOT7Tqk48ccpfLRkvO8wvW3WhVLm1pdUt6rQed3KW8nHEkuzPLyKuHJFbc1jNjm1Y29St6Jr+oW1GNrGylNwyoOVGqmstvDSXHi33Et8eO08XEipkyVjh4Wheadeu+o3FxQlv1q1KbcY70UozisPdyo4SXBkkWpwTFZczW/HE2hfdsr27owpTtIOo96W+lTdThjhlLjz7ipirWZ2stZbWiN6qrPbjUMOPySKm1jPU1sp+EWyeMGPz+qD0+Ty+jZ6Otnq9OtK6rQdJKm4wjJbsm5NZbjzSSXb3nzUZKzHDD7gx2i3FLoZUWwABVekHQHc26qU1mtb5aXbKL+dFePBNerHaT4MnDbaUGfHxRvDkRoKABJ7MVHG+tXHn8opr3Skk/g2R5fBLvHO14dzRmNJkPoBTbue9UnLvnL7Tw2pvxZrz7Z/Vv4o2pWPY8iB2tGiS/IR8HJfvM9f2TO+lr8f1li6uNsst80VcAAAAAAAAAAAGMAMAZAAYwBkAAAxgDIGMAZAAAAHzOaScm8JJtt9iQHA9TuFUr1qsViNSrUmlywpSbXwZq1jasQy7TvMy1jpyuXRlpPWXLuZL0LdcPGck0vJZfvRW1N9o2WNPTe2/k6okUV5kDXvq+5TlLuXD1vkV9VnjDhtef5PqSYqTe8VVA8O3gCxbPTzSa+jN/FL+p6jsW++CY8pZOuj/c39iVNhTAAAAAAAAAAAAAAAAAAAAAAAAAAAAAI7aC3lVtK9GnJRqVKUorLwuKxxfZwPtb1raJs5vWZrMQ5ZLYq7XZS/8AdD8WWp1+njrePmqxo8s9Ksx2LuO2pbx9dbP8KZFbtbSR/wBkfOHUaDPP9q0bIWdeze5O5oSoSk5ShFTlLLjjMZbq7lzzyKeftXR258XNZw6LUV5bclresUfpN/6WU57W0sf3fSVqNJl8nhV16C+bGUn44SIMnbWKI7lZn6JK6G89ZiERe306r9LglyS5L+bMPVa3JqJ73TyX8OCuOOXVrFRMAbNleypPMeKfNPtLek1mTTW3r6+sIc2CuWNpT9hqsKj3cOMu59vqZ6TSdpYtRPD0t5f4ZmbTWx8+sN80VYAAAAAAAAAAAAAAAAAAAAAAAAAADU1KzdWCipbmHnlnPB8OZT1ulnU4+CLbc02DL6O2+26Lez8v8RfVf8zInsK354+X7rn2+Py/VlbPv/EX1f6n37it+ePl+594R+X6vpaB/wBz93+p3HYfnf6fu5ntCfy/V9x0CPbOXkkdx2Hj9d5+jmdfbyh6LQaf0p+a/kSR2LgjrM/T/D5OuyeUPr/gdLvl5r+R19zaf2/Nz9ty+wWh0v8AN9b+h9+59N7fmfbcvsP+B0v831j59zab2/M+25fYw9Dpd8vNfyH3Np/b8z7dk9jD0Gn9Kfmv5HM9iYPOfp/h19uyeUPq20eMJxmpye72PHdg7wdk0w5YyVtPL3Ocmrtes1mEmaqoAAAAAAAAAAAAAAAAAAAAAAAAAAAAAAAAAAAAAAAAAAAAAAAAAAAAAAAAAAAAAAAAAAAAAAAAAAAAAAAAAAAAAAP/2Q==;rounded=0;fillColor=#FFE45E;strokeColor=#FF6392;fontColor=#5AA9E6;" vertex="1" parent="1">
          <mxGeometry x="185" y="167" width="59" height="36.77" as="geometry" />
        </mxCell>
        <mxCell id="4q8cgyD3nparRnlQqXy9-23" style="edgeStyle=orthogonalEdgeStyle;rounded=0;orthogonalLoop=1;jettySize=auto;html=1;strokeColor=#FF6392;fontColor=#5AA9E6;fillColor=#FFE45E;" edge="1" parent="1" source="4q8cgyD3nparRnlQqXy9-8" target="4q8cgyD3nparRnlQqXy9-13">
          <mxGeometry relative="1" as="geometry">
            <mxPoint x="657.31494140625" y="302.74" as="targetPoint" />
          </mxGeometry>
        </mxCell>
        <mxCell id="4q8cgyD3nparRnlQqXy9-8" value="" style="shape=image;verticalLabelPosition=bottom;labelBackgroundColor=none;verticalAlign=top;aspect=fixed;imageAspect=0;image=data:image/png,iVBORw0KGgoAAAANSUhEUgAAAOIAAADfCAMAAADcKv+WAAABWVBMVEX///9AhvT7vQDrQTIwqVJfY2hYXGJcYGVWWmAzgPRNjvXz+P++3s/y+vTA1vc+r14fpUbo6enc3N69v8D39/YvqkNBhPpydXqChYhnam7Q0NL/vwDv7/A7g/TqNzTuPyz8wwDGyMmnqqsApllucXVPVFrg4OHxfHPrMh/l7v6Ls/j+56+ztLWEh4uNj5L99/P84+LvXU/tUULzpJ3vd2jsLhn6xb3qSTnval/1saX30s7wkot6qPfb5/346MKpx/ivtirq8v6bm53rwbT1nYbyin702Nb87uj1u7fwW0/wg37xnI7xZlvfREL0ysdYfN250fh0pflhfNiGkteLsvjuVyzxaiX0jxv4nBPziR/sSzD5rAz2yWT68Nb6wSf71HvwZiX8yE/31aH+24n7xUH52JRclvX8zF755bH/8s/AzpFdt3Sh1a/h7+X82nSev/q32L6Dw5JTs20S1cGVAAAPpklEQVR4nO2d/3/TNhrHkxZbTjs2HJv5Cw4hvjjNIE1poRQKhdXbKGNcR+84OEYLYxuwHWNw9///cJL8TU5tWY5lu/DyZ69XaR1b1lt69DyPZMVrtRpx0trl7W++XVnf6C8u9jfWV779ZvvyWt114id1+97N6xuL43Ef8nnq98fjxY3r393Y/wQ47165ukXCkUKgW1ev3K27jkV094cNiJdER3COxxvfbddd0/m0d2VxMwMvxNxcvHK57vrm1vYKHG05NB6v7Kt1VzqP7j3Iss8ki12/V3e9mXVvPT+gB/n9tbrrzqTt6/MB+pAn3/Ps3Wf1MSmQm/f36mag61pyBMwF2T/JQ3JvJZcXTdP46ontyGuLhbvQU3/xhLqdHzb5ACJt/lA3TYLWrnMx0kDjBycuQb/8PVdCNOU6YSnddnFPOqvx33fqpiK1zx0QupwfO5/XzRVpn7OReoTtdudh3WSB9jm6UpLw5DCWQdjHhJDxRNjq3VLGYdtX5wT4nD1eKU2MsBcg9tpf1U2oPiiDsB2pt1T3YsBV7s6U7ENsqgf1Et7g7mr64zghZLxTJ+E2/z7s/9ieVa0uZys/AVI+wnZ7qT7Cmzk6sT8e97fWr69AXV/f6icvIfe3Zq3U68ZbdRGym2l/vLFyY5uYOlzevrGycYyyv/iPJML6MoC1dbZ40d/curmdMPtb274Zp4RWmkwII8dy9XxQV9g6cXP9WursVt1fjxbsjvtSohvfV0kWaI+JcHNjn17M3fXNkDANEDHuVkMV03cMZjreYlhn2t8aL6b50shUa/A4lxmC/vg+0wLMGvTM0NPQCGsJjiuZndhfzLDRSPuL/RRfGnVj5XlcdieOH+RY8N37Z4dOWEM3ZnbieCVfgbeyGKsejXuzhOdJzUHYaj3KZKy2G8mYiJD+9fjxkyf/xnry9PHPP/Xv5y/zYgZj5yJ/jnStbUR8Pz1+8uzZhbgWnh2+Osq9nJ1lq5WmOH52CvmePluARIl6/uJ2zmJf071qpetxOOyfP//zszQ8XxdeHOUpdpmOWGXcWIOE5xefLtD5PB3m6crP6abaqy6Lu7Z5/vzTcyyASC9z9CTd5VRoqSvnHzP1YCB2c11eOiGW+tOzPIBIl1iLfkjtxl5VPvWXXF3o6SVrNkf1qhUtxq29yc2Hxeh26B6nc6uCfjz6bT7ChYVf2W5AD46dpdLTuNvzAkIdMt2BPhrbvXbJjEUI4YBkuYWalY6Xuxx3+1whxIXfWPLWWxmT41LDY7E+ZGXMSHFKZSxOyGSry1mE5dnqEQdCJp9zkGWpZa1yqPnjfaJeZd7pTqalQr9aBuJLPoQLC5kJa/ZgLCddfcWLMDtd3c021DIeAfAZiEyEGdONkJH3cJw7bctP2FrOWODwTfU1X0JeZso2qWJwqW3e0461SgkZEfk+rXpRKWF2CuebKsf1cU6+hnnqz4jY7vDbWfVXtYTMiL1HvAj3KiZs3eowMnLbIMfoTp+/PHxzePi8OGHrzq2DpV6PAZNX/F9LqzWpl5eCZxhHt18kXJCHEGv3zgEDJKfHHAxzqDd/xBvlUmFCpJ1sg+U0q8qOGMcX19biF81FCLXzOiMj5xQ3MrswccMo2ZHzErYYHh7zsNQsO02b4x6F88sChJkPVrkk47/ORwgZz3EgzGLs8Xh0TJ9j0NabLvEgzMhYecw36Bn4OeoU/pAHYWuXbqnFB+MRdemUvhCzxrJSky3qWg6HwUhNbS5k7L5/xYOw1aKtAnCYNVK9DR+CTNG6kUMqfkhDrOhrlMs0xOJLcbQE9TmH6jOJ4lSLu1SqQ63ITjMcTtFv46zR1sB/51J/BlEXj4siUpf5/8i+no92aIOx6CKVRUPMtTWqiGjbqnpFZ/5UxMpeolAfYmW9uEsz1KKI1LGYd6fi3KKOxaJJKjVoVOZRabs4iu+oovXiXzyqz6L3tKBRGJE6XeRRfRZRHlVxmDDSFqfos0V+og7F4gtU1JnGGw71Z9BFWswovlr8Ow2xmrCxSxmIPOaLe9RZfyXd+Ii6f5PDYw1qL3JYmskUfQNHj8MdMraflm6qX9EA+Tzx/4WOeKFkxoy9DVwe+Gc9Ir5QajK+m/X1FC5bUzL3o5SYx+0sZTyb4vOV/+wnqH+VtEy1fDHr6RunZ6gMmxnO/ecdl1vFtPu+V9n3NjM3+J37+syZt39+9u40i5ZZ9NXOnYNsQH47qOgJDiL826lTp86cOfUFg061lxjU7jDtaOC2vVilP+z3CFl19kuGqrOK3zcajz26n5+QKyLHXXDLlHlxTkK+vcjxqzfpozEvIU9EvlsZ00ZjbkKOiD2+b/r5gxchR0Te32RI3Ok3ByE/xA63PX6+kgLHPITcEEt4y89xU52LkB9iCV+4mc3Gz309ByA3xHJeY3TIoQ95IZb0ir/l3zgQ8kHk/QWGUMTG1LkJuSD2lkp7h8HR88KEPBB7SyW+UNRnnNPTcEIsldC31QJ9yAGxRCv1pL4pRlgYsXNQ/jf7XxQiLIpYzauLPjt1pi7EXrui90+efluAsQhi56C6dzN/mL8j50fs9Kp9UfqfZ+aEnBex17tY9QtE3/13vp6cD7HTflTH+8Pf/fnF2UoQe52l93W9IF398Da3veZF7HV6Bw/recetr9Mf3p46m4czB2Kv1+l0Du7U8fLXWb378N//fYFW/Fl09ssOi3q99tLrR3dOwP+kINLpd5+x6eHnLNrZ2a373f2NGjVq1KhRo0aNGjVq1KhRo0aNGjVq1KhRo0aNGjVq1KhRo0aNGjVq1KhRo0a8pcqybNVdiRJl2hqQoAR9IvMs14LiWd7cUjRHBAIWBJ2OuBXcdQCQuLbZfJJ1yefzKUWbV9FdURBEVkTZVBRlMCphQ7EpAMwlOZLjSCKClFY5WRc7omUPYRWggOEGVqQMNa0A8GSo6fgX00GEomGbsmXJgymAtQKgO3/JpFgRVVdCIwUA3NrS1GthBfIWQLQloOFKSKhQQQk/sFwRGLxGIyPiyIC1ECVhOBwaIrpEwBVQJKEQoiggRMuA7SZqsVqY3AgZEbuw84A4HciQx+rahgj/QmbEB3GKzFKfKYffgGdCHEErkvSoWa2pBAD6kwuiCQ0EGOVFLhZEVYOEbrxyXqDhgrgKzVQy5y8lSyyItiSI7syxwN0UR7RQJ+rZJ6tQiQeTjlrEwRnEpCssOA6N5NvyQBxARGmQcaZs64YgGKuTmD13bQ26YmOqxOpgTofoVLM1sicTJY4o2xosR3NnfNlEEpyUKpCIluLqmu5Gleh2u+HvKvGHqkx1bWqPfET4Q5DoI1F1Ac7tYCJGRBZ1Kop+wjCM6mfBNAngg67iiJIeQ7T9csQZq9QAGKbcm0CcCLBogCrhZ16WI0YtI0uS4w83xcAnortMEOJ0xkjUmHBJmoRzOpzhhU5BNsTwKJCCdK/r/Y1+oo9BDHE1Kkcih4bqCKn5YoSoSzh7Romm5CU8lkjYnwwE0UN04SnoRBHmDwpC1EFsKFowhUM5lOP9hyxKQ0EFnqrhWktT7zyciYiGNkSpkOB4VRyFR72UPoY4lXAKpeNy/GK8q5z0oRIi6jBSgumgC3MvCDNMR7QdWANdMQeuABMYOCygkcQRY9k48rQuDioKtGVrgnrAwbaqo34amvDusovJcbqnoaN6V4UjQ5/tRTToYQql4uQJFhM5cRi2nLRsMUCEwxVo3hCWUYSx0xBxquYdtXAdjvdiHHHQkh0ibHZRJ6Fb4mAapAsD0XfKCsrBgu5BwYhERG0Z5EzwM2L0QXgpLZnyES0yduMoaqUgQh4pbC/U5HgsCkJUpOwEkrxeRC0eVQBBoCGOrorSBeyyuh7FMPB/ahyxG3nurmsIZDdCRCcDEf5DxG5YpDhJRpQlclyPJCHwqERk7voamQau9xBWm/B/MJ8FU5jWCmRJFmqNCSpekCKXC0smELGlIXJFQx4D+sWwdqaUnnv4iNO4z9UBKjkJEbWFTJ4IEZHJoSY5phEyPxn1BekLXIBqilpHJIbPFIOb0KadKP50HRJxiptKtgHydyLQCSY4FoiWSUQcArKdYeuh4ZKECOdIw9iJEBHbU1JUQs1uqDIQCNvGRwXDG9NEYyHwVexQSJuXSEQ0/FanaLoNJMOOJ3QCupqKaMS7AY0XKxFxKsZSNXii1vIGW0I3woEFXYc8k8HCWJqCqGci4pAIJF2ZzTSmIDX7yI0IEhBH2LsfG+6K5x6woRJW5BsqqjYBrmMrnDXUGKIL/IWvhPAALzyWhccRZwx1Ih03VDHJUCfefNHGAWtmLtDF0bDleUkiTKN+mLZU6HUIdyMzuBvUZMJwktxZGoiNBiwvtfIRV4G3QOFrNXQ34e1MMdXdeDeAHiDm07DN4QQQe9zwM9QcjukFjajnka2LI68zw6RZlmJBA/8Z9oQcHxmow4W4Iak6Dj8+4iTmdKERoQZWyXZ2PUQ5lgzKOGigXwycNkb5/wjnWl46ajmEHSui75tw6B/KETfu6YETJQSqNhP60WAU/UaXh44eI7IRI9nIsi6KmhoiygIZcVF4R/ceRqFkBIQo9IdF68BHhAXgFTigTwamqdgaTjCDLBIDAHukql0vVcM1washwkRWVRNn1yIuFmVM4lCxVEsZgpkEDo950e2qqjyBl4J4zgbTRBAtUFv4DCBHCRxqA91rUpSXeUPXDX7BSZ2HaKJA4DWWinvKN3DZn0yIkihKXgYd5ckeAjAMMuFWMQK8v4FP9xJXb6ULnmYI0vE0XEH2IIqGQabzESOyAKDZykCxVwW8BIcv8hFVOBkAgmuOTFsIcyiUXEr6YNSdCGKAiBtLnMKDtle1cAzb3gJxIJEMI94kyFsldwJDVzXyaDDq/SkWLmI4O5maOGECDKRjHnQi4hkNamUcW6aku0FtihchJVRPMcgdbX+CBedNAy1wJ9PgRCBqAylCbI1cAR7EEiXBjXm+YDIKpCExXmz/qChpkc3hiTI+aJt+0ICTM8czMVMLyhESshnZDW4DJDHIfhRHAv4YRBNzf6obLjO4Xp0lw1RBOCWe+FWAYR1eTsYQa+Dq2nCo6e5g1rVbyhR94g5iSxjWZBUe1d14ftm1dXRqF3UAckLWACq4znRROdOU2IFrYKDPQ4chw4uD30cTVLJuk46qiwrUJ2jyMwirLXtVMPHls9lv4nJT8EmOo+gniosJAT3tBtQSaZ9SqlCKzCjuwiiRlBh+3IKhwgkzRBR2UyfzH60UJ1rURqEfCPTzP0bh0L/ahaF/MBTDaPlJCadJQDSGXihmWGT/+OStowpeflTk8e4Jlr8ajtYuuO0WOHHqumj1WE+J7p+ILFmWP00bbVSb/g9mtwqn/29ZIQAAAABJRU5ErkJggg==;rounded=0;fillColor=#FFE45E;strokeColor=#FF6392;fontColor=#5AA9E6;" vertex="1" parent="1">
          <mxGeometry x="500" y="273.1" width="60.08" height="59.28" as="geometry" />
        </mxCell>
        <mxCell id="4q8cgyD3nparRnlQqXy9-9" value="" style="shape=image;verticalLabelPosition=bottom;labelBackgroundColor=none;verticalAlign=top;aspect=fixed;imageAspect=0;image=data:image/png,iVBORw0KGgoAAAANSUhEUgAAAOEAAADhCAMAAAAJbSJIAAAAyVBMVEX///9EhvlEhvhEhvdEhfVFhfNEhfRDh/xDh/tDhvpGg+tFhfJAe95Ae91FhO5Gg+xEhvZFhPA/fOM/fOU6g/2Ttf6Vs/EpceC/0PTv8/wxdeFNhOT4+v6dt+3o7/4qcuLX4/3f5/o4ddgzgPzH1vVzov0wf/3q8Pxil/d3ovY0ffNZi+Uzdt82fe+Srualwf5Sj/y0y/6hvvyNsftelPisxftmmfe+0ft3numqwPBrlueJqep4nubc5v+AqfhxnvUPZ9ywxe9rlOBXVYQBAAAMZklEQVR4nO2dC3eiPBPH0Xp5benFS4tGVBTqBWFrW6213dqn+/0/1IsXJGCAhEyEnuP/7Dn7PO0C+TGTmclAVJLOOuuss84666yzzjrr1+tr+XQvVk/Lr/Twlo/Dod4QLX04fFymwvei643yadTQ9Xv11HzPw1Ph7SGHzyflU9+GJ+XbaPh2QjOOyqc14E6N8uhUgF09Bb6N9O5pANWU+DY6jaPO03DRnRrzUwA+peWjG+lP4gFHp4+iuIbio81jej66UeNRNKCWrgkdI2qCCWcpA5bLM7GAz2mGmZ10oeWbmj6ggygyKd43/pe+GvfiALvDtOm2Goor3t7KacNtVX4TBWhkw4SOEQ1BhHfZMKFjxDsxgAs9bbKD9IUIQDUrPrrRUETGWGchU7hqrOEB+1kyoWPEPjjhPO1SJiDwtfAy7TVFUEPoLnG5kjWVYQFf9LSBjqS/QAK2hmnzEDRsARJOGmnjENSYwAFqWTShY0QNjHCWvTizEVxDY5m9MLOTDpUxsjgJd2rAAN5nmBCkoTHKZpjZCaQF/ljOZVdlgBa4NkybIlIAGWNWSRsiUhXujPGsp80QI94WuNrItgkdIzb4GhqvjbQJYtV45QHsZjvM7MTVAn/Luo9uVOFogRu/wYROsEneAr/7DSZ0jJi4Bb7IeqZwlbQFrg7zv0UJW+BrM+2BU8tM1ALv/x4TOkZM0gKfV9IeNoMqCVrgSz3tUTMpQUOjkkt70EzKVVgBXxppj5lRDcYWeOt3+ehGOlsLfPKbwsxOFaYWuPabMoUrpobGLHchQnmnhqw4tW5eyNlzDA2NpQl99XzFNHX9Yv49mUy+5xdD3TQr4JwmfcYAvnjONHOThYG3NkfGYrL5Meh18iYt4D2kCfOmPl+Qa6r+Yq6bkDfTpGyBj3S4a+bNyktUk6H7UoFkpNyQ8ViBumDenMVPjeUMjrFC1QI3dKjrmRd0U395BzYtqBoaM6A7mmPYG/GkA8WcPEXGWADdT3PM8lhoNIa6bGxDQ4WZFHnmzS1POsyFzbiGxitImMmZGiOgUynCZMdKTAu8q98BqDIj1/kjzWg2m4ZG9t/WrAJx8ZiM8ZYHuIY5Pj6xajxMe44QQpu/pp9NgjeNTYCr5yNb4AbEJczjSzQ/HLZ6zVPd6vU+msc3GOT6URnj7oL/ApWgBdUO6uF0B8perxM05BjAUS8iWuBPALfwKCN1/NbzMaJeJ/CvZwDTxAyN4yoA4IXpDzJaDYXg7YRqfp9qmQBuFJox1gCZQtd8p/zs1ePU+/TfEp1/EJWQFvgXwLn9DtJqo1jAeh21fWbvAFQ3OvmzNOb8GTfnizJ9RAPoICLf+nHKX9zkiC3wpc594gsdz+X9eA89eCqOOOoV+AdCWtXkCtzy+SgDYACxgwoXvEPJHQO+mPyEJex8LYsB0PFUfC7W69xDMY9a4C0AQF+vq81GaLWxY5u9eol7MMHSeALgpHiu/6QLMpgR8aTRrnMj5gItcE3nB8RNaLBMwp16WOpf9vgdNZCZZ3l+Qhs7X40ZsF6vYcdvPIDTiv7y8RliFmJzu8PqoxuhTuAEnIgm/k4fAGABW3mqvUQ27Hnl5Gjr5Zwjwlrg9wCEeayMCDPhdvHriMKI0+1P+KzotcC7AGGmgDe5QhDQqr9Vtx2C2PNOsUIAiAe3+gbIFAXTq0qaYYTuoj6U0Fv1uxURF2Lue3cywyzxq1Dw7v9HyIrXIwxbEX94J7H2JynyjGrf0JgXAAjzXoJ14kxCQjzWvFs1fsTCHMyEJdubhkbYqj6eEHlZf3U4C8+wtkac5CEIsQbXAwfhA+k+cVhx41oqiAlLprcynIY1nuIJ69PDWUaYr3MgmiqQk5Z0L0aETUMKwhoin4aD0JCebAhAbGk44iHsea5Qw10hsRXtJ2kNMg0LXkWjKZjX7UVNqGghzp4UMb+WxhC5olT4JoWIuv8/aLzUC1gflu83SQc2lm4gAPF02PQI3fS2z5A0hF5V8+4nTGrFG6kIosKaRKjsOwktJQlhMCQXS0lGdiXdwBASbQhLWEs0shtpnOjOHBES52ECQmweHqfVK/aBlcbSugBC6DW7NXpCpOyEEWqH85AKB3ZEZ/o82RCEpeJhZCNvwDGE6Ge0VevaOwLLhyQxD8zJh4YJQVjEOgbUNjz8v0cYUtMkt6JT06hAhKS6lJkQr0uVGlGMiJtHiROQiYivLQ6JjJnQIq4tOBx1G+Nh3JS4PmQmJK4Peay4u/FzCCNiCVE9+BczoYKt8cPWYCyI+3IZxIglUp+GltDNHnifJhyQwVHdufNduOIX3mtzHcyN/TGEh6CCVTT9kECztyKdDnVI1wQgxCbiIV9Yf6kIP9yBY7liZQWpEiCahzb8g81PWMJ73u7wFIOC8OdwQ/CedyQgHaLtRWbJLvIjmthzCyTvxiHv/DSS8OCPMsKeW0Q6KR1iEX8YtgTwU9v37MkdiKzGEI4O/9T37CnaSakQ/dsv5iVuQt8tkw8DaauRhCMPRcaOjweMRSz5Xz/TIIyI3TO8WdMNJTR8CxHNO7wZ/aoYFWLwJd4Jf8Yo+p7je1ZQmmoY4Y93Iyzfc3wawGjEQnArWwvYiFgwlNE+HRxleBkz1RQ7ls6E0YhH72JIL/wZo3iF37LjqRS1xrfwAcnHv2dFtAlbSktXVV7hWV/qIjkgy62r28HfyAh/ObtjHf0+VFXyqK/wl5dcLU1uwqrpe68tiFj7+2N89TXjR64FAX3vtSn0gA4ieSDE3TrjIjdh0fduYtcKkNQsCyFkHf/Y93r9NMjPjlgkvEvv6AvAiD4/lVpTi2KI1tT/finNMTGIZsh3ta0BytNAFvqMrb5qiv8d4f5/1GHGVfUozIR9TIYKkDGKNut73lpgFJ34mxKHGL4zaAGxxrgMjhiFl2AWCr6rD4FoR+zuqgKsMWzCfguyHRE62m8BgVishgNKBshamLRnRglY0kIKYc8MCGLknhnpjX+NQbCitNv3hBS0k4KmD0bULjoexFL0R3+BNDSu7Mske9eAEM2Y3c6vNn9SdDKurcVCBOXf0d5hKmywvGjHfQSfCkLo5FxCkIzU6j//EUkR7dgPxXqGQbyypyz7gFtTJCsQiDbFR2FeghA6Nb9Cb0Zn2jkDhEAMZmOSNIDydIdoyaH5wKembO0GyI8YnSlcfZegEGXU/onna6PDYoIXsfYRchG/RkBG3CDWkNWJmo+jjoXwxRInokI59x+A4ukG0Vn8KdNVyGebrKZKcK3IhWj9oQOUJCjCLeIGElnvK9/n07SM1d/aER4nYs2iBZSWwIjOxTeFqCJPP97/vn9MZWVbppLHGUS0qAlR/KQ/aA5FWK3e+O7yTtEDDSBSA9baITQkQWWMLeI19RiJiPSHaQyE0rqQFcQ/FuVBg78sgFLLvAFEZCXEEDtHXdfQYxi/duYFLNhUeaxIH0ot1lJfAgRMjsiQK2pxQEdqQhoxoaP+oXZRGdGVwD6NIQkTWNGS3YKcRtN4oCP1ATNGIkQWKYm+Su8VaI3hIgoEHHzG4xCkQmYMsYhKwm+AWNg3oLq9FiRrlQxw09AAJawKQpSvkwJKBrARBSEijq8H/oY1ohjEAV3rgqyuCUsoBFHh+pruz1LmERNmCleqDeyn4Iiyxfnlx8/AwQYc0WJoXZDVhiaERZRZWhdkadDBBhaRrXVB1qR6e3ML++fmEgpw8I8fUBrZt+ACQ0QQ338oPVQzi0jf5I5W9SariAMYQGkpwE9BEK0ErQuypgL8FAAxUeuCrC8RRuRHRIlaF2StRRiRF5GxyR2tlhAjciJakN+tLnWyh8je5I6WiIzBhwiVKVw17UtBSmpCjtYFWW9Cgo2jhIg8rQuy+mJmYlJHhcwUrl7rGULkbF2QpYoyYhJE3tYFWavsICZvckfrUhQhMyJ/64IsQ5gRGRF5mtzR+haVMdgQuZrc0RqZwghZEGnfz0uih7qoyubykjr1D4BaF0Sp9dv0EcVkClc/wspTakT+Jne02gKNSIcI17ogSxNpRBpE7LOyBGlSTRURpMkdrZFQI8YiItDWBVmLNBFFFaR+vQn100jEgegws5N6KzKeRiIOhKZCTyOReT8KcSCwXAsgXgqs3rYi8l2fIMq4Uj/EhhsSovXvRC6619IWbMagAUUXawR16mKnI443GJB3fYtW8922Q77lAEKDvSzrH9hzQnb1m4sHYfrjqLNqCuiMnnXWWWedddZZZ5111qn1f9J4g6DuxjFHAAAAAElFTkSuQmCC;rounded=0;fillColor=#FFE45E;strokeColor=#FF6392;fontColor=#5AA9E6;" vertex="1" parent="1">
          <mxGeometry x="555" y="250.48" width="31" height="31" as="geometry" />
        </mxCell>
        <mxCell id="4q8cgyD3nparRnlQqXy9-10" value="" style="shape=image;verticalLabelPosition=bottom;labelBackgroundColor=none;verticalAlign=top;aspect=fixed;imageAspect=0;image=data:image/jpeg,/9j/4AAQSkZJRgABAQAAAQABAAD/2wCEAAkGBxAQEBUTEhIVFRUXFhIVFxgYGRgYGBsdFRUXFhgXGRYYHSggGBolHRUVITEhJSkrLi4uFx8zODMtNygtLisBCgoKDg0OGxAQGy0mICYtLS0vLy0tLS0rMC0tLS0tLS0tLS0tLS0tLS0tLS0tLS0tLS0tLS0tLS0tLS0tLS0tLf/AABEIAOEA4QMBEQACEQEDEQH/xAAbAAEAAwEBAQEAAAAAAAAAAAAABAUGAwcCAf/EADgQAAIBAQUGBAUDAwUBAQAAAAABAgMEBREhQQYSMVFhcRMiMtFCgZGxwVKh8GJy4SOCkqLSYxT/xAAaAQEAAwEBAQAAAAAAAAAAAAAAAwQFAgEG/8QALhEAAgICAgIBBAEDAwUAAAAAAAIBAwQRITESImFBQlGRIxNxoTKBwRSx4fDx/9oADAMBAAIRAxEAPwD3AAAAAAAAAAAAAAAAAAAAAAAAAAAAAAAAAAAAAAAAAAAAAAAAAAAAAAAAAAAAAAAAAAAAAAAAAAAAAAAAAAAAAAAAAAAAAAAAAAAAAAAAAAAAAAAAAAAAAAAAAAAAAAAAAAAAAAAAAAAAAAAAAAAAAAAAAAAAAAAAAAAAAAAAAAAAAAAAAAAAAAAAAAAAAAAAAArbzvqjZ/VLGX6Vm/8AHzJ6say3qP8AcrXZKV9zycrr2go18sdyf6Zfh6nt2LZX3zB5TlpZx1JblctAAAAAAAAAAAAAAAAAAAAAAAAAAAAAAAAAAAAEO8Lzo0FjUlhyXFvsiSul7J0sENt6VxtpMjem1FWrjGn/AKcf+z+enyNSnBReW5n/AAZV2a78LxBQNl7iCnzJdXZs7UqrfqPw6fHGXHDotO7KN2aq+qcyXasNpjyfiC2q7SUbOo06SlVUcnKUn+zfH7FdcJ7PZuCw2alfqnJcXZfNG0LySwlrF5S/z8irbjvV/qgt1ZCWdSWJCTgAAAAAAAAAAAAAAAAAAAAAAAAAAAAAEe2WynRjvVJKK6/hanaVs86WCOy1UjbSZS9NrJyxjRW6v1P1fJaGlTgRHLmZdnNPCcGbqVHJtybbfFvN/U0IWFjUGfMy3Mk27LorWh+SOEdZPKP+fkQXZSV8dyWKcV7PiC8cbHYP/tW+34j9ylq7J+FLe6cfrmSjvO+K1ofnlhHSKyX+fmXqcZKuo5KV2Q9vckFLHJE8zERuSGImeINFdezbw8W0S8OKzwxwl3b+H7mbdmeXpXGzRpxPGPOydE+vtbThNRhBygsnLHP5Y8fmRLgPK7mdSStnrDaiOC8u+8qVdY05J81wa7oqWVPXOmguV3JZHrJLIyUAAAAAAAAAAAAAAAAAAAAAAAA5168KcXKclFLVvA9VZadLBwzqsbmTMXrtavTQWP8AVJZfKPuaNOBM8uZ12f8ARDLWi0TqS3pycnzf8yNJEVI0sGazs07mT6sdkqVpbtOLk+mnVvgjmy1K420nddTWTpYNFQuWz2WKnappy0guH04y+xntkW3z41xwX4oqojysnckO9NpKlRblJeHDhl6n81wXYnpwlXl+ZILsxn4XiCiLvRSJ913RVtD8iwjrJ+le76Ir3ZSVf3LNGM9v9jTSs9C7qe+4yqTeW9hr34QX7mbDWZT6mdQaErXiruI3JmLzvWraHjN5aRXpXu+rNSnHSqODMuve2eSCTdEPZf3DcNabVSTlSjxTWUn25LqzPystNeCxs0cbEbfk06L207T2enNQxc0spSWaX/r5FRMKxl8i0+bWraLayWynVjvU5KS6flaMrOjJOmgtJYrxtZO5ydgAAAAAAAAAAAAAAAAAHzOaSxbwS1YjcnktEcyZ29dq6cMY0Vvv9Xwr3L9OCzcvwZ92escJyZO226rWlvVJN8louy0NOulK40sGZZa1k+0keEW2kk23wSzf0O2aFjcycKstOoNFd2zDw37TLw4rPDFY/N8ImdbmzM+NUGjVhQseVsmgsUqU6Mo2OUItZY4Y4Pm1xz5spPDK+7YkupKsmqpMRetCtCo/Gx3nq88eqfI2aHrZfQxr0sVvcjUqUpyUYptvglmyR3VI3JGiM86WDTXfs3CnHxLVJJLPdxy/3PXsjNtzHsnxqNOvESuPK043rtM2vDs63ILLewweH9K+FElGD91nMkV+bM+tfEH5de00orcrrxIcMeMvmviQuwYnmviRTmzEas5gkWzZ6lXj4tlms/hxy7J/C+j/AGI68t6p8bYJHxEsjyqk7WC5KNkj4tpknJcF8KfJL4mR2ZFl8+CRwSV0V0R5v2VV9bRVK+MYYwp/vLu9F0LmPhrXy3MlPIzGs4jiCkLpTJt0QruqlQbUua4Jc5aYdyvkzXC/yFjHWyW9DfVLZGhTi69SOOSbSwTfRZsxFSbG0kG01kVrHnJLo1ozSlFpp8Gs0cTExOpJFaGjcH2eHQAAAAAAAAAAAAbB5sor12mo0sYw/wBSXT0rvL2LdOG9nM8QU7s1E4XmTIXjetau/PLL9Kyj9NTVqx0r6gyrb3s/1SQibeiGOS4unZ2tXwk/JDm+L7R/JSvzVTheZLtOEz8txBb1LbZLCnGlHxKnBvi/nLTsiqtN2RO3nUFlrqseNJG5M5eN51a7xqSxWkVlFdkaVVCVx6wZ1tz2T7ScLLaZ0pKUJOLWq+z5o7srV400HNdjJO1N1dtX/wDbQ/16OHV8H/VHVGHZH9Gz+Njbrn+tX/IpDr22y2BOFKO9U11f+6X4RMlVuRPk08EL3VY8eKRyZa8Lwq15b1SWPJaLsjTqpSqNKZltz2TtpIpMRFrc1xVbQ8fTT1k9f7VqU78xa+I5kuUYjWczxBobRbrNd8PDppSqarXHnOX4KNdNmS3k3Rde6vHXxTsyVvt1SvLeqSxei0XRLQ1aqVrjSmVZa1k7kjEpGWdzXLUtLxXlguMn9lzZUyMpauI7LePitZO56NNa7bZ7vp+HTjjNrHDV/wBU2Z9dNmS3k3Rfsurx18V7MdbbZUrT36ksX+y6JaI166lrjSmRZYzztpP2w2+rQeNOTXNaPutTyylLI9oOq7nrn1k3Gz18StMXvU3Fx4yXpfbr0MXIoiptROzZxr5tjcwXBWLQPQAAAAAAACpvTaCjQxWO/P8ATH8vgizTivZ8QVbstK+O5Mhel+1q+Te7H9Mfy9TUpxEr57kyrsp7CrLRWJt23VWtDwhHLWTyivnr2RXuyUrjnssU4z2dGjp2CyWFKVVqpU4pYY/8Y6d2Z82XZM6XovwlONG25kqL22iq18Yx8kOSeb7v8FyjDSvmeZKd2Y9nEcQUxcKh3sdkqVpbtOLk/t1b0IrbVrjbElVTWTpTU2O46Flj4tplGTWnwp9F8TMuzJsvnxSODUTHrojyeeSvvjaadXGNLGEOGPxP6elFqjCVfZ+ZKt+az8LxBny+UT6p03JpRTbeSSzbOWeFjbHSpLTqDV3TszGC8S0tZZ7uPlX9z17cDKvzGf1rNSnDWv2sOV87T4rw7P5Vw3+H/FaLqSY+D91n6I8jN3619GYbxzebNLWuIM6Z32fh7M6PIg0txbMueE6+MY8VHg335L9zLyc37U/Zp42F91hMvraKFJeFZ8MVlivTHDRLVnGPhs/tZ0d5GZC+lZkJzcm3Jtt5tvNs1liIjUGVMzM7k+T08Lm4bhlaHvSxjTWusukfco5OXFfqvZexsSbPZujRXve9KxwVKklvYZRXCPWX8zKNGO18+TdFy/IWmPFezLWO/bRTm5b7li8ZKWafy0+Rp2YlbxrRm15ViTvZrLr2lo1sIy/058nwfaXuZd2G9fMcwalOYlnE8SXZVLgAAAAPmpBSTT4NNcuPVCJ1yeTG40ee39c0rNPHN02/LL8Pr9zcxcmLY1PZhZONNU7+hX2azTqy3YRcnyX55E9lq1xtpIa6medLBp7Ds3SpR8S1TWWe7jhFd3r2RmW5j2T41waVeIlUeVknK8tqMFuWaKjFZb2GH/GOnzJKcH7rCK7O+2vozVSpKTbk22+LebNFVhY1BnzMzO5Pk9mYjsREz0aC59mKlXCVXGEOXxP5Pgu5n350LwnJfowZbmziCztl82eyR8OzxUpLjhwT5yl8TK9WLZdPk/RPblJVHjX2ZS222pWlvVJOT/ZdEtDVrqWuNLBl2WNZO2kjkhwT7qumraJYQWEdZPgvd9CtfkpVHyWKMZ7Z+DVwp2W7oYt4zevGcuiWiMz+XJb/AN0af8WMvz/ky973zVtL8z3YaRXD582adGMtUfP5My/Ja2eevwVpZK590KMpyUYJyk+CRw7qkbY7RJedQbO5rgp2deLXaclnn6Y+76mPflPdPivRr0YyUx5N2Vd/bSSq4wotxhrLg5duS/ctY2FC+z9lTJzJf1XozpolAHgNFs9s66uFSqmocVHg5e0fuZuVma9U/ZpYuHv2ctb+v6NnXhUcN/DDLhBdufQgxsWbJ8m6/wC5Nk5cVx4p2YqpNybcm23m2+LNhVhY1BkTMzOz5OjwnXTdk7TPdjkl6paJe/Qr5GQtUfJYx8drW+D0WyWeNKEYRxwisM3i/qYLNLTuTeVYWNQdjw6AAAABytNnjUi4TWMXk0eq0rO4OWWGjUlNedrhYKajSperg/hx/qfFstU1zkN7MVL7Ix10sGNt1uqV5b1STfJaLsjXrpSuNLBkWWtZO2kjEpGTLtuyraJYU45ayeUV3f4ILshKo57J6cd7Z4NXZrus1gj4lSW9PRvjjyhEy2styW1HRprXVjRueyjvjaOpXxjDyQ5L1Pu/wi9RhrXy3MlC/MaziOIKQulQJHkzERuT2ImejTXLsu5YTr4xXFQ1f9z0XTiZmRnfbX+zSx8HXtZ+ibe20VOgvDs6i2ssV6Y/TiyOjDayfJ+iS/MVI8azIV68qknKcnKT4tmqqKkaUymaWncnM7OSZdl21LRLdgstZPgu/XoV78hao57J6MdrZ46N3dd1U7LB7qcpYZyy3n0XJdDFtua1tsbVVK1L6wY2/b2q15uMk4Ri/R/65s18WhEXyjmfyZGTe7tpuPgqi2VQeTMRzJ7ETPEGs2e2b4Va66xg/vL2MnKzPL1To1cXD8fZzrtFtEoY0qL83CUl8PRdfsMXD8vZ+jzKzNeiGPbNbWoMo/D0E26btnaKm7HJcZS0S9+hXyMiKl+Sxj482t8Hod32KFCmoQWS+rfN9TCd5dtybtdcJHjBJOTsAAAAAAAHK1WaFWDhNYxfFfzU6VpWdwcukPGpPP74uWpQqKKTlGT8jS4/0vDU2qMpXXbcSYl+KyNqOYLW6dlW/PaHguO4nn/uenZFW/OmfWv9lmnBiPawkXltHSoLw7PGLayxXoXbDizinDaz2s/8nV2aqetZk7TaZ1ZOU5OTer+y5I1UrVI0plu8vO5OR2ckq77BUry3acceb0XdkN161xzJNTQ9k6g29zXBTs/mfnqfqen9q0Ma/Je3+xs0YyVf3Kna+3WmL3MN2k+El8XNN6di1hV1NzPZUzbLY4+hlDVMsAF3cWz87RhKeMafPWX9vTqUMnMhPVOy/j4cvy/Ro7wvGhYaahBLew8sF95P+YlGqh8htz+y7delC+Md/gz1j2orxqOU/PFvOPDD+3kXrMFJXS9lGvOdW23MGgrWazXhDei/MviXqj0ktUUVe3GbX/wvMlWSu4MleNz1qE1GUXJN4RlHNPp0fQ1Ksqt130ZlmK6NrRptn9nVSwqVcHPilpH3l9jNycubPVejRx8SK48m7Ie0e0eONKi8uEpr7R9yfFw/vf8ARBlZm/VDKmoZgAJl13dO0VNyHeUtIrm/YgvyIqjc9k9FE2tr6Hod3WCFCmoQWWr1b5swrHZ28mN2utUXUEo4JAAAAAAAAAAAfjAMbtfaLSpbssqT9O7wfST59DUwUqmN/UyM5rYnU9GZNMzgeAvrl2aqVsJVMYQ/7S7LRdWUMjNheE7NDHwpbl+IL633pZ7FDw6cU5LhBfeT/jKVVFl8+U9fkt25FdEeK9mVlftodXxd/Pl8OHLd5Gn/ANJX4eOv9/qZn/VWefls2F23lRttNxkljh5oP7rmuplW0vQ2/wDJrVXJeup/Rmb82dnRe9TTnTfzksdGte5oY+arRp+JM/Iw2SdrzBY3FsxhhO0LPioad5exXyc2W9U6/JZx8KF9n7O9+7SRp406ODnwb+GPbmznGw5f2foZOZC+qdmNqVHJuUm23m2+LNhVhY1Bky0zO5Pk9PCVdk6yqrwcd98Ete+mHcgyP6fh/J0TUf1POP6Z6TRlJQTqbqkljLD0p64Y6GBOpn1N+J0u2MftFtE6uNOk2ocHLg5dFyj9zVxcPx9n7MnKzPP1TozholAAEu7LvnaJ7kF3eiXNkF961LuSeihrW1B6HdlghZ6ahBd3q3zZhWWM7bY3a61rXUEs4JAAAAAAAAAAAAAAcLZZYVoOE1in/MVyZ0jyk+SnFiQ6+MmDt9wVqdZU4xc1L0tarq+CaNmvMRk8m7MazDeH8YNDdGztOgvErNSks8/RH68X1Zn3ZT2z4r0X6cVKo8m7IV97U44wodnP/wAr8ljHwfus/RWyM7frX+zLSbbxbxb4t8TTiNRqDNmdn4eglXZSrSqxVHHfTxTWnVvREF7Vqk+ZNQjs3oekU5uFNOrKOKXmayj1eZgTG50pv78V2xkL+2ldTGFFtQ4OXBvtyRq42FC+z9mVk5kv6p0Zw0TPABIsFiqV5qFNYv8AZLm3oiG65al3JLTS1rag3l13ZSsdNttY4Yzm/wCZIxbbXub/AINuqpKF/wCTL7QX/Ku3CGKp/Ry79OhpYuJFceTdmXk5U2TpeijLxTABKu2wTtFRQgu70S5shvuWpdyTUUta2oPQ7ru6nZ6e5Bd3q3zZg2WNY3kxvVVLWvipMOCQAAAAAAAAAAAAAAAAAAw+11a0eJuzypv0Yel9+cuhrYK1eO47MbNmzy1PRnjRKAPAWVzXNUtMsvLBcZPh2XNlXIylqjUcyWsfFa2d/Q2cYWew0tIrV8ZSf5Zk/wAl7/mTWma8dPwY6+r7qWl4emGkfzLmzXx8Vao39TIvyWtn4KstFYAE66rsqWie7BYJeqWi930K9+QtUfP4LFGO1s/BurNZqFjpPhGKzlJ8W+vPsYrM9z/mTZha6E/EGNv2+52mWC8tNcI8+svY18bFiqNz2ZGRkzbOvoVJaKoPQSbusM681CCz1eiXNkN1y1LuSamlrG1B6HdV207PDdgv7nq3zfsYVtrWNtjdqqWtdKTSMlAAAAAAAAAAAAAAAAAAABHt9jhWg4TWKf1T0a6ndbyjeSkdla2L4seeXvdk7NPdlmnnGWjX4fQ3KMhbV39TCvoaudSWtxbNSqYTrYxhxUfil35L9ypk5uvVP2W8bC37P+jQXpetGyQUUlvYeWCy+vJFOnHe6d/5Ll2QlMajswt4W+pXnvzeL0WiXJI2qqVrjSmLba1k7YjEpGAC0uO5Z2mWPpprjL8Lmynk5UVRqOy3jYs2zuejbSlQsdHSMI/Vv8tmTEPc/wCZNZmSlPgw183vO0zxeUF6Y8ur5s2cfHWqPkxr8hrZ+CuLBXB6CTd9inXqKEFm+L0S5voQ3XLUu5JaaWtbUHoV03ZCz092Ob4ylq37dDCttaxvJjeqqWtdQTiMlAAAAAAAAAAAAAAAAAAAAAABzrUYzw3oqWDTWKxwa4M9iZjo8lYnsptpb7lZ0owi9+SxUn6V7voWsTGi2dzPBTy8mao1EcmGq1JSk5Sbbebb4m0qwsagxWaZncnwdHgPAXmz9wSrvfnjGn+8u3TqUMrL8PVey/i4kv7P0a622ylZKWLwSWUYrXokZtdb3NqDSttWlTA3peVS0T3p8Phjol79TcooWpdQYd1zWzuSGSkQAO9hsc601CCxb+iXN9CO21a13JLVU1jag9Eui64WaG7HNv1S1b9uhg22tY25N6mlal1BOIyUAAAAAAAAAAAAAAAAAAAAAAAAAEW8bBCvBwmstHqnzR3XY1beSkdtS2L4yeeXpd07PPdmsvhlo1z/AMG7Retq7gwb6GqbUkMmITTbPbOOeFSssI8YwfGXV8l01MzKzPtT9mpi4f3P+jRXtetOywz44eWK19kUqaGtbj9ly+9alMBb7bUrzc5vF6LRLkkbtVS1rpTDssaxtyRjsjB6DvYrJOtNQgsW/oureiIrbVrXcklVTWNpT0K57qhZobsc5P1S1b9uhhXXNa25N6mlal1BYERMAAAAAAAAAAAAAAAAAAAAAAAAAAAACJed3wtFNwmuz1T5okqtatvJSK2pbF1JS3Nsuqc9+q1JpvdWmXCT69CzfmM8aXgq0YSpPk3Mk+/L6hZo4ZSqPhH8vkiLHxmtn4/JLkZMVRr6mCtdpnVm5zeMn/MFyRuV1qi+KmI7s87Y4nZwADtY7LOrNQgsZP8AmL5IittWtdySVVtY2lPQrlumFmhgs5P1S1fTouhhXXNa25N6mlal1BYkRMAAAAAAAAAAAAAAAAAAAAAAAAAAAAAAAD5qJtPB4PDJ8uoPJ3o81viy1adVqri5PPe/Uua9tDfx7EdPQ+fyK3R/chE5AADtZbNOrNQgsZP+Yvkjiyxa12xJXU1jaU9BuS6IWaGCzm/VLn0XJGFdc1rbk3aKFqXUFkQk4AAAAAAAAAAAAAAAAAAAAAAAAAAAAAAAAAAIV63bC0U3GfH4XqnzRJVa1TeUEN1K2r4yeeXjYZ0JuE1no9GuaN6m1bV3BhW1NW2pOdls86s1CCxk+C/mh7ZYta+UnldbWN4weg3Hc8LNDnN+qX4XQwr72tbcm7RQtS6gsyEnAAAAAAAAAAAAAAAAAAAAAAAAAAAAAAAAAAAAABBva7IWiG7JZ/DLVP8AmhJVc1TbghupW1dScbjuaFmjzm/VL8Lkjq+9rZ56OaKFqjjstCEsAAAAAAAAAAAAAAAAAAAAAAAAAAAAAAAAAAAAAAAAAAAAAAAAAAAAAAAAAAAAAAAAAAAAAAAAAAAAAAAAAAAAAAAAAAAAAAAAAAAAAAAAAAAAAAAAAAAAAAAAAAAAAAAAAAAAAAAAAAAAAAAAAAAAAAAAAAAAAAAAAAAAAAAAAAAAAAAAAAAAAAAAAAAAAAAAAAAAAAAAAAAAAAAAAAAAAAAAAAAAAAAAAAAAAAAAAAAAAH//2Q==;rounded=0;fillColor=#FFE45E;strokeColor=#FF6392;fontColor=#5AA9E6;" vertex="1" parent="1">
          <mxGeometry x="357" y="243.39" width="35" height="35" as="geometry" />
        </mxCell>
        <mxCell id="4q8cgyD3nparRnlQqXy9-22" style="edgeStyle=orthogonalEdgeStyle;rounded=0;orthogonalLoop=1;jettySize=auto;html=1;strokeColor=#FF6392;fontColor=#5AA9E6;fillColor=#FFE45E;" edge="1" parent="1" source="4q8cgyD3nparRnlQqXy9-11">
          <mxGeometry relative="1" as="geometry">
            <mxPoint x="494" y="292" as="targetPoint" />
          </mxGeometry>
        </mxCell>
        <mxCell id="4q8cgyD3nparRnlQqXy9-11" value="" style="shape=image;verticalLabelPosition=bottom;labelBackgroundColor=none;verticalAlign=top;aspect=fixed;imageAspect=0;image=data:image/jpeg,/9j/4AAQSkZJRgABAQAAAQABAAD/2wCEAAkGBxAQEBUTEhIVFRUXFhIVFxgYGRgYGBsdFRUXFhgXGRYYHSggGBolHRUVITEhJSkrLi4uFx8zODMtNygtLisBCgoKDg0OGxAQGy0mICYtLS0vLy0tLS0rMC0tLS0tLS0tLS0tLS0tLS0tLS0tLS0tLS0tLS0tLS0tLS0tLS0tLf/AABEIAOEA4QMBEQACEQEDEQH/xAAbAAEAAwEBAQEAAAAAAAAAAAAABAUGAwcCAf/EADgQAAIBAQUGBAUDAwUBAQAAAAABAgMEBREhQQYSMVFhcRMiMtFCgZGxwVKh8GJy4SOCkqLSYxT/xAAaAQEAAwEBAQAAAAAAAAAAAAAAAwQFAgEG/8QALhEAAgICAgIBBAEDAwUAAAAAAAIBAwQRITESImFBQlGRIxNxoTKBwRSx4fDx/9oADAMBAAIRAxEAPwD3AAAAAAAAAAAAAAAAAAAAAAAAAAAAAAAAAAAAAAAAAAAAAAAAAAAAAAAAAAAAAAAAAAAAAAAAAAAAAAAAAAAAAAAAAAAAAAAAAAAAAAAAAAAAAAAAAAAAAAAAAAAAAAAAAAAAAAAAAAAAAAAAAAAAAAAAAAAAAAAAAAAAAAAAAAAAAAAAAAAAAAAAAAAAAAAAAArbzvqjZ/VLGX6Vm/8AHzJ6say3qP8AcrXZKV9zycrr2go18sdyf6Zfh6nt2LZX3zB5TlpZx1JblctAAAAAAAAAAAAAAAAAAAAAAAAAAAAAAAAAAAAEO8Lzo0FjUlhyXFvsiSul7J0sENt6VxtpMjem1FWrjGn/AKcf+z+enyNSnBReW5n/AAZV2a78LxBQNl7iCnzJdXZs7UqrfqPw6fHGXHDotO7KN2aq+qcyXasNpjyfiC2q7SUbOo06SlVUcnKUn+zfH7FdcJ7PZuCw2alfqnJcXZfNG0LySwlrF5S/z8irbjvV/qgt1ZCWdSWJCTgAAAAAAAAAAAAAAAAAAAAAAAAAAAAAEe2WynRjvVJKK6/hanaVs86WCOy1UjbSZS9NrJyxjRW6v1P1fJaGlTgRHLmZdnNPCcGbqVHJtybbfFvN/U0IWFjUGfMy3Mk27LorWh+SOEdZPKP+fkQXZSV8dyWKcV7PiC8cbHYP/tW+34j9ylq7J+FLe6cfrmSjvO+K1ofnlhHSKyX+fmXqcZKuo5KV2Q9vckFLHJE8zERuSGImeINFdezbw8W0S8OKzwxwl3b+H7mbdmeXpXGzRpxPGPOydE+vtbThNRhBygsnLHP5Y8fmRLgPK7mdSStnrDaiOC8u+8qVdY05J81wa7oqWVPXOmguV3JZHrJLIyUAAAAAAAAAAAAAAAAAAAAAAAA5168KcXKclFLVvA9VZadLBwzqsbmTMXrtavTQWP8AVJZfKPuaNOBM8uZ12f8ARDLWi0TqS3pycnzf8yNJEVI0sGazs07mT6sdkqVpbtOLk+mnVvgjmy1K420nddTWTpYNFQuWz2WKnappy0guH04y+xntkW3z41xwX4oqojysnckO9NpKlRblJeHDhl6n81wXYnpwlXl+ZILsxn4XiCiLvRSJ913RVtD8iwjrJ+le76Ir3ZSVf3LNGM9v9jTSs9C7qe+4yqTeW9hr34QX7mbDWZT6mdQaErXiruI3JmLzvWraHjN5aRXpXu+rNSnHSqODMuve2eSCTdEPZf3DcNabVSTlSjxTWUn25LqzPystNeCxs0cbEbfk06L207T2enNQxc0spSWaX/r5FRMKxl8i0+bWraLayWynVjvU5KS6flaMrOjJOmgtJYrxtZO5ydgAAAAAAAAAAAAAAAAAHzOaSxbwS1YjcnktEcyZ29dq6cMY0Vvv9Xwr3L9OCzcvwZ92escJyZO226rWlvVJN8louy0NOulK40sGZZa1k+0keEW2kk23wSzf0O2aFjcycKstOoNFd2zDw37TLw4rPDFY/N8ImdbmzM+NUGjVhQseVsmgsUqU6Mo2OUItZY4Y4Pm1xz5spPDK+7YkupKsmqpMRetCtCo/Gx3nq88eqfI2aHrZfQxr0sVvcjUqUpyUYptvglmyR3VI3JGiM86WDTXfs3CnHxLVJJLPdxy/3PXsjNtzHsnxqNOvESuPK043rtM2vDs63ILLewweH9K+FElGD91nMkV+bM+tfEH5de00orcrrxIcMeMvmviQuwYnmviRTmzEas5gkWzZ6lXj4tlms/hxy7J/C+j/AGI68t6p8bYJHxEsjyqk7WC5KNkj4tpknJcF8KfJL4mR2ZFl8+CRwSV0V0R5v2VV9bRVK+MYYwp/vLu9F0LmPhrXy3MlPIzGs4jiCkLpTJt0QruqlQbUua4Jc5aYdyvkzXC/yFjHWyW9DfVLZGhTi69SOOSbSwTfRZsxFSbG0kG01kVrHnJLo1ozSlFpp8Gs0cTExOpJFaGjcH2eHQAAAAAAAAAAAAbB5sor12mo0sYw/wBSXT0rvL2LdOG9nM8QU7s1E4XmTIXjetau/PLL9Kyj9NTVqx0r6gyrb3s/1SQibeiGOS4unZ2tXwk/JDm+L7R/JSvzVTheZLtOEz8txBb1LbZLCnGlHxKnBvi/nLTsiqtN2RO3nUFlrqseNJG5M5eN51a7xqSxWkVlFdkaVVCVx6wZ1tz2T7ScLLaZ0pKUJOLWq+z5o7srV400HNdjJO1N1dtX/wDbQ/16OHV8H/VHVGHZH9Gz+Njbrn+tX/IpDr22y2BOFKO9U11f+6X4RMlVuRPk08EL3VY8eKRyZa8Lwq15b1SWPJaLsjTqpSqNKZltz2TtpIpMRFrc1xVbQ8fTT1k9f7VqU78xa+I5kuUYjWczxBobRbrNd8PDppSqarXHnOX4KNdNmS3k3Rde6vHXxTsyVvt1SvLeqSxei0XRLQ1aqVrjSmVZa1k7kjEpGWdzXLUtLxXlguMn9lzZUyMpauI7LePitZO56NNa7bZ7vp+HTjjNrHDV/wBU2Z9dNmS3k3Rfsurx18V7MdbbZUrT36ksX+y6JaI166lrjSmRZYzztpP2w2+rQeNOTXNaPutTyylLI9oOq7nrn1k3Gz18StMXvU3Fx4yXpfbr0MXIoiptROzZxr5tjcwXBWLQPQAAAAAAACpvTaCjQxWO/P8ATH8vgizTivZ8QVbstK+O5Mhel+1q+Te7H9Mfy9TUpxEr57kyrsp7CrLRWJt23VWtDwhHLWTyivnr2RXuyUrjnssU4z2dGjp2CyWFKVVqpU4pYY/8Y6d2Z82XZM6XovwlONG25kqL22iq18Yx8kOSeb7v8FyjDSvmeZKd2Y9nEcQUxcKh3sdkqVpbtOLk/t1b0IrbVrjbElVTWTpTU2O46Flj4tplGTWnwp9F8TMuzJsvnxSODUTHrojyeeSvvjaadXGNLGEOGPxP6elFqjCVfZ+ZKt+az8LxBny+UT6p03JpRTbeSSzbOWeFjbHSpLTqDV3TszGC8S0tZZ7uPlX9z17cDKvzGf1rNSnDWv2sOV87T4rw7P5Vw3+H/FaLqSY+D91n6I8jN3619GYbxzebNLWuIM6Z32fh7M6PIg0txbMueE6+MY8VHg335L9zLyc37U/Zp42F91hMvraKFJeFZ8MVlivTHDRLVnGPhs/tZ0d5GZC+lZkJzcm3Jtt5tvNs1liIjUGVMzM7k+T08Lm4bhlaHvSxjTWusukfco5OXFfqvZexsSbPZujRXve9KxwVKklvYZRXCPWX8zKNGO18+TdFy/IWmPFezLWO/bRTm5b7li8ZKWafy0+Rp2YlbxrRm15ViTvZrLr2lo1sIy/058nwfaXuZd2G9fMcwalOYlnE8SXZVLgAAAAPmpBSTT4NNcuPVCJ1yeTG40ee39c0rNPHN02/LL8Pr9zcxcmLY1PZhZONNU7+hX2azTqy3YRcnyX55E9lq1xtpIa6medLBp7Ds3SpR8S1TWWe7jhFd3r2RmW5j2T41waVeIlUeVknK8tqMFuWaKjFZb2GH/GOnzJKcH7rCK7O+2vozVSpKTbk22+LebNFVhY1BnzMzO5Pk9mYjsREz0aC59mKlXCVXGEOXxP5Pgu5n350LwnJfowZbmziCztl82eyR8OzxUpLjhwT5yl8TK9WLZdPk/RPblJVHjX2ZS222pWlvVJOT/ZdEtDVrqWuNLBl2WNZO2kjkhwT7qumraJYQWEdZPgvd9CtfkpVHyWKMZ7Z+DVwp2W7oYt4zevGcuiWiMz+XJb/AN0af8WMvz/ky973zVtL8z3YaRXD582adGMtUfP5My/Ja2eevwVpZK590KMpyUYJyk+CRw7qkbY7RJedQbO5rgp2deLXaclnn6Y+76mPflPdPivRr0YyUx5N2Vd/bSSq4wotxhrLg5duS/ctY2FC+z9lTJzJf1XozpolAHgNFs9s66uFSqmocVHg5e0fuZuVma9U/ZpYuHv2ctb+v6NnXhUcN/DDLhBdufQgxsWbJ8m6/wC5Nk5cVx4p2YqpNybcm23m2+LNhVhY1BkTMzOz5OjwnXTdk7TPdjkl6paJe/Qr5GQtUfJYx8drW+D0WyWeNKEYRxwisM3i/qYLNLTuTeVYWNQdjw6AAAABytNnjUi4TWMXk0eq0rO4OWWGjUlNedrhYKajSperg/hx/qfFstU1zkN7MVL7Ix10sGNt1uqV5b1STfJaLsjXrpSuNLBkWWtZO2kjEpGTLtuyraJYU45ayeUV3f4ILshKo57J6cd7Z4NXZrus1gj4lSW9PRvjjyhEy2styW1HRprXVjRueyjvjaOpXxjDyQ5L1Pu/wi9RhrXy3MlC/MaziOIKQulQJHkzERuT2ImejTXLsu5YTr4xXFQ1f9z0XTiZmRnfbX+zSx8HXtZ+ibe20VOgvDs6i2ssV6Y/TiyOjDayfJ+iS/MVI8azIV68qknKcnKT4tmqqKkaUymaWncnM7OSZdl21LRLdgstZPgu/XoV78hao57J6MdrZ46N3dd1U7LB7qcpYZyy3n0XJdDFtua1tsbVVK1L6wY2/b2q15uMk4Ri/R/65s18WhEXyjmfyZGTe7tpuPgqi2VQeTMRzJ7ETPEGs2e2b4Va66xg/vL2MnKzPL1To1cXD8fZzrtFtEoY0qL83CUl8PRdfsMXD8vZ+jzKzNeiGPbNbWoMo/D0E26btnaKm7HJcZS0S9+hXyMiKl+Sxj482t8Hod32KFCmoQWS+rfN9TCd5dtybtdcJHjBJOTsAAAAAAAHK1WaFWDhNYxfFfzU6VpWdwcukPGpPP74uWpQqKKTlGT8jS4/0vDU2qMpXXbcSYl+KyNqOYLW6dlW/PaHguO4nn/uenZFW/OmfWv9lmnBiPawkXltHSoLw7PGLayxXoXbDizinDaz2s/8nV2aqetZk7TaZ1ZOU5OTer+y5I1UrVI0plu8vO5OR2ckq77BUry3acceb0XdkN161xzJNTQ9k6g29zXBTs/mfnqfqen9q0Ma/Je3+xs0YyVf3Kna+3WmL3MN2k+El8XNN6di1hV1NzPZUzbLY4+hlDVMsAF3cWz87RhKeMafPWX9vTqUMnMhPVOy/j4cvy/Ro7wvGhYaahBLew8sF95P+YlGqh8htz+y7delC+Md/gz1j2orxqOU/PFvOPDD+3kXrMFJXS9lGvOdW23MGgrWazXhDei/MviXqj0ktUUVe3GbX/wvMlWSu4MleNz1qE1GUXJN4RlHNPp0fQ1Ksqt130ZlmK6NrRptn9nVSwqVcHPilpH3l9jNycubPVejRx8SK48m7Ie0e0eONKi8uEpr7R9yfFw/vf8ARBlZm/VDKmoZgAJl13dO0VNyHeUtIrm/YgvyIqjc9k9FE2tr6Hod3WCFCmoQWWr1b5swrHZ28mN2utUXUEo4JAAAAAAAAAAAfjAMbtfaLSpbssqT9O7wfST59DUwUqmN/UyM5rYnU9GZNMzgeAvrl2aqVsJVMYQ/7S7LRdWUMjNheE7NDHwpbl+IL633pZ7FDw6cU5LhBfeT/jKVVFl8+U9fkt25FdEeK9mVlftodXxd/Pl8OHLd5Gn/ANJX4eOv9/qZn/VWefls2F23lRttNxkljh5oP7rmuplW0vQ2/wDJrVXJeup/Rmb82dnRe9TTnTfzksdGte5oY+arRp+JM/Iw2SdrzBY3FsxhhO0LPioad5exXyc2W9U6/JZx8KF9n7O9+7SRp406ODnwb+GPbmznGw5f2foZOZC+qdmNqVHJuUm23m2+LNhVhY1Bky0zO5Pk9PCVdk6yqrwcd98Ete+mHcgyP6fh/J0TUf1POP6Z6TRlJQTqbqkljLD0p64Y6GBOpn1N+J0u2MftFtE6uNOk2ocHLg5dFyj9zVxcPx9n7MnKzPP1TozholAAEu7LvnaJ7kF3eiXNkF961LuSeihrW1B6HdlghZ6ahBd3q3zZhWWM7bY3a61rXUEs4JAAAAAAAAAAAAAAcLZZYVoOE1in/MVyZ0jyk+SnFiQ6+MmDt9wVqdZU4xc1L0tarq+CaNmvMRk8m7MazDeH8YNDdGztOgvErNSks8/RH68X1Zn3ZT2z4r0X6cVKo8m7IV97U44wodnP/wAr8ljHwfus/RWyM7frX+zLSbbxbxb4t8TTiNRqDNmdn4eglXZSrSqxVHHfTxTWnVvREF7Vqk+ZNQjs3oekU5uFNOrKOKXmayj1eZgTG50pv78V2xkL+2ldTGFFtQ4OXBvtyRq42FC+z9mVk5kv6p0Zw0TPABIsFiqV5qFNYv8AZLm3oiG65al3JLTS1rag3l13ZSsdNttY4Yzm/wCZIxbbXub/AINuqpKF/wCTL7QX/Ku3CGKp/Ry79OhpYuJFceTdmXk5U2TpeijLxTABKu2wTtFRQgu70S5shvuWpdyTUUta2oPQ7ru6nZ6e5Bd3q3zZg2WNY3kxvVVLWvipMOCQAAAAAAAAAAAAAAAAAAw+11a0eJuzypv0Yel9+cuhrYK1eO47MbNmzy1PRnjRKAPAWVzXNUtMsvLBcZPh2XNlXIylqjUcyWsfFa2d/Q2cYWew0tIrV8ZSf5Zk/wAl7/mTWma8dPwY6+r7qWl4emGkfzLmzXx8Vao39TIvyWtn4KstFYAE66rsqWie7BYJeqWi930K9+QtUfP4LFGO1s/BurNZqFjpPhGKzlJ8W+vPsYrM9z/mTZha6E/EGNv2+52mWC8tNcI8+svY18bFiqNz2ZGRkzbOvoVJaKoPQSbusM681CCz1eiXNkN1y1LuSamlrG1B6HdV207PDdgv7nq3zfsYVtrWNtjdqqWtdKTSMlAAAAAAAAAAAAAAAAAAABHt9jhWg4TWKf1T0a6ndbyjeSkdla2L4seeXvdk7NPdlmnnGWjX4fQ3KMhbV39TCvoaudSWtxbNSqYTrYxhxUfil35L9ypk5uvVP2W8bC37P+jQXpetGyQUUlvYeWCy+vJFOnHe6d/5Ll2QlMajswt4W+pXnvzeL0WiXJI2qqVrjSmLba1k7YjEpGAC0uO5Z2mWPpprjL8Lmynk5UVRqOy3jYs2zuejbSlQsdHSMI/Vv8tmTEPc/wCZNZmSlPgw183vO0zxeUF6Y8ur5s2cfHWqPkxr8hrZ+CuLBXB6CTd9inXqKEFm+L0S5voQ3XLUu5JaaWtbUHoV03ZCz092Ob4ylq37dDCttaxvJjeqqWtdQTiMlAAAAAAAAAAAAAAAAAAAAAABzrUYzw3oqWDTWKxwa4M9iZjo8lYnsptpb7lZ0owi9+SxUn6V7voWsTGi2dzPBTy8mao1EcmGq1JSk5Sbbebb4m0qwsagxWaZncnwdHgPAXmz9wSrvfnjGn+8u3TqUMrL8PVey/i4kv7P0a622ylZKWLwSWUYrXokZtdb3NqDSttWlTA3peVS0T3p8Phjol79TcooWpdQYd1zWzuSGSkQAO9hsc601CCxb+iXN9CO21a13JLVU1jag9Eui64WaG7HNv1S1b9uhg22tY25N6mlal1BOIyUAAAAAAAAAAAAAAAAAAAAAAAAAEW8bBCvBwmstHqnzR3XY1beSkdtS2L4yeeXpd07PPdmsvhlo1z/AMG7Retq7gwb6GqbUkMmITTbPbOOeFSssI8YwfGXV8l01MzKzPtT9mpi4f3P+jRXtetOywz44eWK19kUqaGtbj9ly+9alMBb7bUrzc5vF6LRLkkbtVS1rpTDssaxtyRjsjB6DvYrJOtNQgsW/oureiIrbVrXcklVTWNpT0K57qhZobsc5P1S1b9uhhXXNa25N6mlal1BYERMAAAAAAAAAAAAAAAAAAAAAAAAAAAACJed3wtFNwmuz1T5okqtatvJSK2pbF1JS3Nsuqc9+q1JpvdWmXCT69CzfmM8aXgq0YSpPk3Mk+/L6hZo4ZSqPhH8vkiLHxmtn4/JLkZMVRr6mCtdpnVm5zeMn/MFyRuV1qi+KmI7s87Y4nZwADtY7LOrNQgsZP8AmL5IittWtdySVVtY2lPQrlumFmhgs5P1S1fTouhhXXNa25N6mlal1BYkRMAAAAAAAAAAAAAAAAAAAAAAAAAAAAAAAD5qJtPB4PDJ8uoPJ3o81viy1adVqri5PPe/Uua9tDfx7EdPQ+fyK3R/chE5AADtZbNOrNQgsZP+Yvkjiyxa12xJXU1jaU9BuS6IWaGCzm/VLn0XJGFdc1rbk3aKFqXUFkQk4AAAAAAAAAAAAAAAAAAAAAAAAAAAAAAAAAAIV63bC0U3GfH4XqnzRJVa1TeUEN1K2r4yeeXjYZ0JuE1no9GuaN6m1bV3BhW1NW2pOdls86s1CCxk+C/mh7ZYta+UnldbWN4weg3Hc8LNDnN+qX4XQwr72tbcm7RQtS6gsyEnAAAAAAAAAAAAAAAAAAAAAAAAAAAAAAAAAAAAABBva7IWiG7JZ/DLVP8AmhJVc1TbghupW1dScbjuaFmjzm/VL8Lkjq+9rZ56OaKFqjjstCEsAAAAAAAAAAAAAAAAAAAAAAAAAAAAAAAAAAAAAAAAAAAAAAAAAAAAAAAAAAAAAAAAAAAAAAAAAAAAAAAAAAAAAAAAAAAAAAAAAAAAAAAAAAAAAAAAAAAAAAAAAAAAAAAAAAAAAAAAAAAAAAAAAAAAAAAAAAAAAAAAAAAAAAAAAAAAAAAAAAAAAAAAAAAAAAAAAAAAAAAAAAAAAAAAAAAAAAAAAAAAAAAAAAAAAAAAAAAAAH//2Q==;rounded=0;fillColor=#FFE45E;strokeColor=#FF6392;fontColor=#5AA9E6;" vertex="1" parent="1">
          <mxGeometry x="357" y="274.89" width="35" height="35" as="geometry" />
        </mxCell>
        <mxCell id="4q8cgyD3nparRnlQqXy9-12" value="" style="shape=image;verticalLabelPosition=bottom;labelBackgroundColor=none;verticalAlign=top;aspect=fixed;imageAspect=0;image=data:image/jpeg,/9j/4AAQSkZJRgABAQAAAQABAAD/2wCEAAkGBxAQEBUTEhIVFRUXFhIVFxgYGRgYGBsdFRUXFhgXGRYYHSggGBolHRUVITEhJSkrLi4uFx8zODMtNygtLisBCgoKDg0OGxAQGy0mICYtLS0vLy0tLS0rMC0tLS0tLS0tLS0tLS0tLS0tLS0tLS0tLS0tLS0tLS0tLS0tLS0tLf/AABEIAOEA4QMBEQACEQEDEQH/xAAbAAEAAwEBAQEAAAAAAAAAAAAABAUGAwcCAf/EADgQAAIBAQUGBAUDAwUBAQAAAAABAgMEBREhQQYSMVFhcRMiMtFCgZGxwVKh8GJy4SOCkqLSYxT/xAAaAQEAAwEBAQAAAAAAAAAAAAAAAwQFAgEG/8QALhEAAgICAgIBBAEDAwUAAAAAAAIBAwQRITESImFBQlGRIxNxoTKBwRSx4fDx/9oADAMBAAIRAxEAPwD3AAAAAAAAAAAAAAAAAAAAAAAAAAAAAAAAAAAAAAAAAAAAAAAAAAAAAAAAAAAAAAAAAAAAAAAAAAAAAAAAAAAAAAAAAAAAAAAAAAAAAAAAAAAAAAAAAAAAAAAAAAAAAAAAAAAAAAAAAAAAAAAAAAAAAAAAAAAAAAAAAAAAAAAAAAAAAAAAAAAAAAAAAAAAAAAAAArbzvqjZ/VLGX6Vm/8AHzJ6say3qP8AcrXZKV9zycrr2go18sdyf6Zfh6nt2LZX3zB5TlpZx1JblctAAAAAAAAAAAAAAAAAAAAAAAAAAAAAAAAAAAAEO8Lzo0FjUlhyXFvsiSul7J0sENt6VxtpMjem1FWrjGn/AKcf+z+enyNSnBReW5n/AAZV2a78LxBQNl7iCnzJdXZs7UqrfqPw6fHGXHDotO7KN2aq+qcyXasNpjyfiC2q7SUbOo06SlVUcnKUn+zfH7FdcJ7PZuCw2alfqnJcXZfNG0LySwlrF5S/z8irbjvV/qgt1ZCWdSWJCTgAAAAAAAAAAAAAAAAAAAAAAAAAAAAAEe2WynRjvVJKK6/hanaVs86WCOy1UjbSZS9NrJyxjRW6v1P1fJaGlTgRHLmZdnNPCcGbqVHJtybbfFvN/U0IWFjUGfMy3Mk27LorWh+SOEdZPKP+fkQXZSV8dyWKcV7PiC8cbHYP/tW+34j9ylq7J+FLe6cfrmSjvO+K1ofnlhHSKyX+fmXqcZKuo5KV2Q9vckFLHJE8zERuSGImeINFdezbw8W0S8OKzwxwl3b+H7mbdmeXpXGzRpxPGPOydE+vtbThNRhBygsnLHP5Y8fmRLgPK7mdSStnrDaiOC8u+8qVdY05J81wa7oqWVPXOmguV3JZHrJLIyUAAAAAAAAAAAAAAAAAAAAAAAA5168KcXKclFLVvA9VZadLBwzqsbmTMXrtavTQWP8AVJZfKPuaNOBM8uZ12f8ARDLWi0TqS3pycnzf8yNJEVI0sGazs07mT6sdkqVpbtOLk+mnVvgjmy1K420nddTWTpYNFQuWz2WKnappy0guH04y+xntkW3z41xwX4oqojysnckO9NpKlRblJeHDhl6n81wXYnpwlXl+ZILsxn4XiCiLvRSJ913RVtD8iwjrJ+le76Ir3ZSVf3LNGM9v9jTSs9C7qe+4yqTeW9hr34QX7mbDWZT6mdQaErXiruI3JmLzvWraHjN5aRXpXu+rNSnHSqODMuve2eSCTdEPZf3DcNabVSTlSjxTWUn25LqzPystNeCxs0cbEbfk06L207T2enNQxc0spSWaX/r5FRMKxl8i0+bWraLayWynVjvU5KS6flaMrOjJOmgtJYrxtZO5ydgAAAAAAAAAAAAAAAAAHzOaSxbwS1YjcnktEcyZ29dq6cMY0Vvv9Xwr3L9OCzcvwZ92escJyZO226rWlvVJN8louy0NOulK40sGZZa1k+0keEW2kk23wSzf0O2aFjcycKstOoNFd2zDw37TLw4rPDFY/N8ImdbmzM+NUGjVhQseVsmgsUqU6Mo2OUItZY4Y4Pm1xz5spPDK+7YkupKsmqpMRetCtCo/Gx3nq88eqfI2aHrZfQxr0sVvcjUqUpyUYptvglmyR3VI3JGiM86WDTXfs3CnHxLVJJLPdxy/3PXsjNtzHsnxqNOvESuPK043rtM2vDs63ILLewweH9K+FElGD91nMkV+bM+tfEH5de00orcrrxIcMeMvmviQuwYnmviRTmzEas5gkWzZ6lXj4tlms/hxy7J/C+j/AGI68t6p8bYJHxEsjyqk7WC5KNkj4tpknJcF8KfJL4mR2ZFl8+CRwSV0V0R5v2VV9bRVK+MYYwp/vLu9F0LmPhrXy3MlPIzGs4jiCkLpTJt0QruqlQbUua4Jc5aYdyvkzXC/yFjHWyW9DfVLZGhTi69SOOSbSwTfRZsxFSbG0kG01kVrHnJLo1ozSlFpp8Gs0cTExOpJFaGjcH2eHQAAAAAAAAAAAAbB5sor12mo0sYw/wBSXT0rvL2LdOG9nM8QU7s1E4XmTIXjetau/PLL9Kyj9NTVqx0r6gyrb3s/1SQibeiGOS4unZ2tXwk/JDm+L7R/JSvzVTheZLtOEz8txBb1LbZLCnGlHxKnBvi/nLTsiqtN2RO3nUFlrqseNJG5M5eN51a7xqSxWkVlFdkaVVCVx6wZ1tz2T7ScLLaZ0pKUJOLWq+z5o7srV400HNdjJO1N1dtX/wDbQ/16OHV8H/VHVGHZH9Gz+Njbrn+tX/IpDr22y2BOFKO9U11f+6X4RMlVuRPk08EL3VY8eKRyZa8Lwq15b1SWPJaLsjTqpSqNKZltz2TtpIpMRFrc1xVbQ8fTT1k9f7VqU78xa+I5kuUYjWczxBobRbrNd8PDppSqarXHnOX4KNdNmS3k3Rde6vHXxTsyVvt1SvLeqSxei0XRLQ1aqVrjSmVZa1k7kjEpGWdzXLUtLxXlguMn9lzZUyMpauI7LePitZO56NNa7bZ7vp+HTjjNrHDV/wBU2Z9dNmS3k3Rfsurx18V7MdbbZUrT36ksX+y6JaI166lrjSmRZYzztpP2w2+rQeNOTXNaPutTyylLI9oOq7nrn1k3Gz18StMXvU3Fx4yXpfbr0MXIoiptROzZxr5tjcwXBWLQPQAAAAAAACpvTaCjQxWO/P8ATH8vgizTivZ8QVbstK+O5Mhel+1q+Te7H9Mfy9TUpxEr57kyrsp7CrLRWJt23VWtDwhHLWTyivnr2RXuyUrjnssU4z2dGjp2CyWFKVVqpU4pYY/8Y6d2Z82XZM6XovwlONG25kqL22iq18Yx8kOSeb7v8FyjDSvmeZKd2Y9nEcQUxcKh3sdkqVpbtOLk/t1b0IrbVrjbElVTWTpTU2O46Flj4tplGTWnwp9F8TMuzJsvnxSODUTHrojyeeSvvjaadXGNLGEOGPxP6elFqjCVfZ+ZKt+az8LxBny+UT6p03JpRTbeSSzbOWeFjbHSpLTqDV3TszGC8S0tZZ7uPlX9z17cDKvzGf1rNSnDWv2sOV87T4rw7P5Vw3+H/FaLqSY+D91n6I8jN3619GYbxzebNLWuIM6Z32fh7M6PIg0txbMueE6+MY8VHg335L9zLyc37U/Zp42F91hMvraKFJeFZ8MVlivTHDRLVnGPhs/tZ0d5GZC+lZkJzcm3Jtt5tvNs1liIjUGVMzM7k+T08Lm4bhlaHvSxjTWusukfco5OXFfqvZexsSbPZujRXve9KxwVKklvYZRXCPWX8zKNGO18+TdFy/IWmPFezLWO/bRTm5b7li8ZKWafy0+Rp2YlbxrRm15ViTvZrLr2lo1sIy/058nwfaXuZd2G9fMcwalOYlnE8SXZVLgAAAAPmpBSTT4NNcuPVCJ1yeTG40ee39c0rNPHN02/LL8Pr9zcxcmLY1PZhZONNU7+hX2azTqy3YRcnyX55E9lq1xtpIa6medLBp7Ds3SpR8S1TWWe7jhFd3r2RmW5j2T41waVeIlUeVknK8tqMFuWaKjFZb2GH/GOnzJKcH7rCK7O+2vozVSpKTbk22+LebNFVhY1BnzMzO5Pk9mYjsREz0aC59mKlXCVXGEOXxP5Pgu5n350LwnJfowZbmziCztl82eyR8OzxUpLjhwT5yl8TK9WLZdPk/RPblJVHjX2ZS222pWlvVJOT/ZdEtDVrqWuNLBl2WNZO2kjkhwT7qumraJYQWEdZPgvd9CtfkpVHyWKMZ7Z+DVwp2W7oYt4zevGcuiWiMz+XJb/AN0af8WMvz/ky973zVtL8z3YaRXD582adGMtUfP5My/Ja2eevwVpZK590KMpyUYJyk+CRw7qkbY7RJedQbO5rgp2deLXaclnn6Y+76mPflPdPivRr0YyUx5N2Vd/bSSq4wotxhrLg5duS/ctY2FC+z9lTJzJf1XozpolAHgNFs9s66uFSqmocVHg5e0fuZuVma9U/ZpYuHv2ctb+v6NnXhUcN/DDLhBdufQgxsWbJ8m6/wC5Nk5cVx4p2YqpNybcm23m2+LNhVhY1BkTMzOz5OjwnXTdk7TPdjkl6paJe/Qr5GQtUfJYx8drW+D0WyWeNKEYRxwisM3i/qYLNLTuTeVYWNQdjw6AAAABytNnjUi4TWMXk0eq0rO4OWWGjUlNedrhYKajSperg/hx/qfFstU1zkN7MVL7Ix10sGNt1uqV5b1STfJaLsjXrpSuNLBkWWtZO2kjEpGTLtuyraJYU45ayeUV3f4ILshKo57J6cd7Z4NXZrus1gj4lSW9PRvjjyhEy2styW1HRprXVjRueyjvjaOpXxjDyQ5L1Pu/wi9RhrXy3MlC/MaziOIKQulQJHkzERuT2ImejTXLsu5YTr4xXFQ1f9z0XTiZmRnfbX+zSx8HXtZ+ibe20VOgvDs6i2ssV6Y/TiyOjDayfJ+iS/MVI8azIV68qknKcnKT4tmqqKkaUymaWncnM7OSZdl21LRLdgstZPgu/XoV78hao57J6MdrZ46N3dd1U7LB7qcpYZyy3n0XJdDFtua1tsbVVK1L6wY2/b2q15uMk4Ri/R/65s18WhEXyjmfyZGTe7tpuPgqi2VQeTMRzJ7ETPEGs2e2b4Va66xg/vL2MnKzPL1To1cXD8fZzrtFtEoY0qL83CUl8PRdfsMXD8vZ+jzKzNeiGPbNbWoMo/D0E26btnaKm7HJcZS0S9+hXyMiKl+Sxj482t8Hod32KFCmoQWS+rfN9TCd5dtybtdcJHjBJOTsAAAAAAAHK1WaFWDhNYxfFfzU6VpWdwcukPGpPP74uWpQqKKTlGT8jS4/0vDU2qMpXXbcSYl+KyNqOYLW6dlW/PaHguO4nn/uenZFW/OmfWv9lmnBiPawkXltHSoLw7PGLayxXoXbDizinDaz2s/8nV2aqetZk7TaZ1ZOU5OTer+y5I1UrVI0plu8vO5OR2ckq77BUry3acceb0XdkN161xzJNTQ9k6g29zXBTs/mfnqfqen9q0Ma/Je3+xs0YyVf3Kna+3WmL3MN2k+El8XNN6di1hV1NzPZUzbLY4+hlDVMsAF3cWz87RhKeMafPWX9vTqUMnMhPVOy/j4cvy/Ro7wvGhYaahBLew8sF95P+YlGqh8htz+y7delC+Md/gz1j2orxqOU/PFvOPDD+3kXrMFJXS9lGvOdW23MGgrWazXhDei/MviXqj0ktUUVe3GbX/wvMlWSu4MleNz1qE1GUXJN4RlHNPp0fQ1Ksqt130ZlmK6NrRptn9nVSwqVcHPilpH3l9jNycubPVejRx8SK48m7Ie0e0eONKi8uEpr7R9yfFw/vf8ARBlZm/VDKmoZgAJl13dO0VNyHeUtIrm/YgvyIqjc9k9FE2tr6Hod3WCFCmoQWWr1b5swrHZ28mN2utUXUEo4JAAAAAAAAAAAfjAMbtfaLSpbssqT9O7wfST59DUwUqmN/UyM5rYnU9GZNMzgeAvrl2aqVsJVMYQ/7S7LRdWUMjNheE7NDHwpbl+IL633pZ7FDw6cU5LhBfeT/jKVVFl8+U9fkt25FdEeK9mVlftodXxd/Pl8OHLd5Gn/ANJX4eOv9/qZn/VWefls2F23lRttNxkljh5oP7rmuplW0vQ2/wDJrVXJeup/Rmb82dnRe9TTnTfzksdGte5oY+arRp+JM/Iw2SdrzBY3FsxhhO0LPioad5exXyc2W9U6/JZx8KF9n7O9+7SRp406ODnwb+GPbmznGw5f2foZOZC+qdmNqVHJuUm23m2+LNhVhY1Bky0zO5Pk9PCVdk6yqrwcd98Ete+mHcgyP6fh/J0TUf1POP6Z6TRlJQTqbqkljLD0p64Y6GBOpn1N+J0u2MftFtE6uNOk2ocHLg5dFyj9zVxcPx9n7MnKzPP1TozholAAEu7LvnaJ7kF3eiXNkF961LuSeihrW1B6HdlghZ6ahBd3q3zZhWWM7bY3a61rXUEs4JAAAAAAAAAAAAAAcLZZYVoOE1in/MVyZ0jyk+SnFiQ6+MmDt9wVqdZU4xc1L0tarq+CaNmvMRk8m7MazDeH8YNDdGztOgvErNSks8/RH68X1Zn3ZT2z4r0X6cVKo8m7IV97U44wodnP/wAr8ljHwfus/RWyM7frX+zLSbbxbxb4t8TTiNRqDNmdn4eglXZSrSqxVHHfTxTWnVvREF7Vqk+ZNQjs3oekU5uFNOrKOKXmayj1eZgTG50pv78V2xkL+2ldTGFFtQ4OXBvtyRq42FC+z9mVk5kv6p0Zw0TPABIsFiqV5qFNYv8AZLm3oiG65al3JLTS1rag3l13ZSsdNttY4Yzm/wCZIxbbXub/AINuqpKF/wCTL7QX/Ku3CGKp/Ry79OhpYuJFceTdmXk5U2TpeijLxTABKu2wTtFRQgu70S5shvuWpdyTUUta2oPQ7ru6nZ6e5Bd3q3zZg2WNY3kxvVVLWvipMOCQAAAAAAAAAAAAAAAAAAw+11a0eJuzypv0Yel9+cuhrYK1eO47MbNmzy1PRnjRKAPAWVzXNUtMsvLBcZPh2XNlXIylqjUcyWsfFa2d/Q2cYWew0tIrV8ZSf5Zk/wAl7/mTWma8dPwY6+r7qWl4emGkfzLmzXx8Vao39TIvyWtn4KstFYAE66rsqWie7BYJeqWi930K9+QtUfP4LFGO1s/BurNZqFjpPhGKzlJ8W+vPsYrM9z/mTZha6E/EGNv2+52mWC8tNcI8+svY18bFiqNz2ZGRkzbOvoVJaKoPQSbusM681CCz1eiXNkN1y1LuSamlrG1B6HdV207PDdgv7nq3zfsYVtrWNtjdqqWtdKTSMlAAAAAAAAAAAAAAAAAAABHt9jhWg4TWKf1T0a6ndbyjeSkdla2L4seeXvdk7NPdlmnnGWjX4fQ3KMhbV39TCvoaudSWtxbNSqYTrYxhxUfil35L9ypk5uvVP2W8bC37P+jQXpetGyQUUlvYeWCy+vJFOnHe6d/5Ll2QlMajswt4W+pXnvzeL0WiXJI2qqVrjSmLba1k7YjEpGAC0uO5Z2mWPpprjL8Lmynk5UVRqOy3jYs2zuejbSlQsdHSMI/Vv8tmTEPc/wCZNZmSlPgw183vO0zxeUF6Y8ur5s2cfHWqPkxr8hrZ+CuLBXB6CTd9inXqKEFm+L0S5voQ3XLUu5JaaWtbUHoV03ZCz092Ob4ylq37dDCttaxvJjeqqWtdQTiMlAAAAAAAAAAAAAAAAAAAAAABzrUYzw3oqWDTWKxwa4M9iZjo8lYnsptpb7lZ0owi9+SxUn6V7voWsTGi2dzPBTy8mao1EcmGq1JSk5Sbbebb4m0qwsagxWaZncnwdHgPAXmz9wSrvfnjGn+8u3TqUMrL8PVey/i4kv7P0a622ylZKWLwSWUYrXokZtdb3NqDSttWlTA3peVS0T3p8Phjol79TcooWpdQYd1zWzuSGSkQAO9hsc601CCxb+iXN9CO21a13JLVU1jag9Eui64WaG7HNv1S1b9uhg22tY25N6mlal1BOIyUAAAAAAAAAAAAAAAAAAAAAAAAAEW8bBCvBwmstHqnzR3XY1beSkdtS2L4yeeXpd07PPdmsvhlo1z/AMG7Retq7gwb6GqbUkMmITTbPbOOeFSssI8YwfGXV8l01MzKzPtT9mpi4f3P+jRXtetOywz44eWK19kUqaGtbj9ly+9alMBb7bUrzc5vF6LRLkkbtVS1rpTDssaxtyRjsjB6DvYrJOtNQgsW/oureiIrbVrXcklVTWNpT0K57qhZobsc5P1S1b9uhhXXNa25N6mlal1BYERMAAAAAAAAAAAAAAAAAAAAAAAAAAAACJed3wtFNwmuz1T5okqtatvJSK2pbF1JS3Nsuqc9+q1JpvdWmXCT69CzfmM8aXgq0YSpPk3Mk+/L6hZo4ZSqPhH8vkiLHxmtn4/JLkZMVRr6mCtdpnVm5zeMn/MFyRuV1qi+KmI7s87Y4nZwADtY7LOrNQgsZP8AmL5IittWtdySVVtY2lPQrlumFmhgs5P1S1fTouhhXXNa25N6mlal1BYkRMAAAAAAAAAAAAAAAAAAAAAAAAAAAAAAAD5qJtPB4PDJ8uoPJ3o81viy1adVqri5PPe/Uua9tDfx7EdPQ+fyK3R/chE5AADtZbNOrNQgsZP+Yvkjiyxa12xJXU1jaU9BuS6IWaGCzm/VLn0XJGFdc1rbk3aKFqXUFkQk4AAAAAAAAAAAAAAAAAAAAAAAAAAAAAAAAAAIV63bC0U3GfH4XqnzRJVa1TeUEN1K2r4yeeXjYZ0JuE1no9GuaN6m1bV3BhW1NW2pOdls86s1CCxk+C/mh7ZYta+UnldbWN4weg3Hc8LNDnN+qX4XQwr72tbcm7RQtS6gsyEnAAAAAAAAAAAAAAAAAAAAAAAAAAAAAAAAAAAAABBva7IWiG7JZ/DLVP8AmhJVc1TbghupW1dScbjuaFmjzm/VL8Lkjq+9rZ56OaKFqjjstCEsAAAAAAAAAAAAAAAAAAAAAAAAAAAAAAAAAAAAAAAAAAAAAAAAAAAAAAAAAAAAAAAAAAAAAAAAAAAAAAAAAAAAAAAAAAAAAAAAAAAAAAAAAAAAAAAAAAAAAAAAAAAAAAAAAAAAAAAAAAAAAAAAAAAAAAAAAAAAAAAAAAAAAAAAAAAAAAAAAAAAAAAAAAAAAAAAAAAAAAAAAAAAAAAAAAAAAAAAAAAAAAAAAAAAAAAAAAAAAH//2Q==;rounded=0;fillColor=#FFE45E;strokeColor=#FF6392;fontColor=#5AA9E6;" vertex="1" parent="1">
          <mxGeometry x="357" y="308" width="34.89" height="34.89" as="geometry" />
        </mxCell>
        <mxCell id="4q8cgyD3nparRnlQqXy9-13" value="" style="shape=image;verticalLabelPosition=bottom;labelBackgroundColor=none;verticalAlign=top;aspect=fixed;imageAspect=0;image=data:image/png,iVBORw0KGgoAAAANSUhEUgAAAOIAAADfCAMAAADcKv+WAAAA8FBMVEX///8AAAD/43X0pQDgggD9wAbslwD7tQDokADvnAD2qQD/zSf/3l7/4W7mjQD/32TjhwDyoQD8uwP/3VT/0C/+yBv/2Uf/1Dn/32H8uAL/10LrlQD/yyL/3VXIyMicnJxLS0uLi4v/9dH/++7aigH/1Cfy8vL5xGn1zp/77MPOfQLedgDW1tbffAD5sADvxp9cXFxpaWnm5ub0zZ/ZgQFAQEC3t7cjIyN+fn7Q0NCEhIRmZma6uroyMjKTk5OsrKw7OzsVFRX979f6zID4tjX85sb/44b6wyfmmQ3/8sX/8Lj/2j3z07TKcADno1z45tVsSI0JAAAHzElEQVR4nO3ca1faSByAcaMxEEUIigqGi1Rlt1vKAlsQFETa7a5t9/L9v83ONZeZSeKeajOT839Oe6AU0/yYyUz0RXd2IAiCIAiCIAiCIAiCIAiCIAiCIAiCIAiCIAiCIAiChD5++imln/M+vRfo095BpL099Iv8ZtUPrvI+w+/tc0wohpEHeZ/i9/Z7hvBgr/4573P8zkYZQDRVTb8ck338giwoMbrkFJO4F62AxPimUUCi4CsecS8+SeuFIwpAllscojxF8TDW60UhimsMn6T1ohCTBrBeCCK+/g5iwjp/LAxRGryYrxhE1SpaLxYxHVgsYl3hKxJRvgYLQ6wnwIpETM+tuwUiukUdRZeXBHQd04mOG1aPQl0KLAIxyBfHksFNIl79cR6t0UC/Gvx5o/Gn68eIrnnEq/OkGqy6g40uW0gNJB6l+1CHZceNj6BhxJssYePmyXdFoEnEq5vzi1QgChNdMaOIWcLGU9mRhK5vLFHkJRLNHUXJd3jYeKoWZxTlATw8LBRRDSREvxDEJCDq6Voiohs744jJQAWR3LsaRWxIwMNYEaLDgIYRU6Yoqt2OEB0OdJyyQcRUIBK2Y6PoFIAoAqNExzGfeNiQgIzoxIEGE2Vg+7RNRtFxjCW2U33t01NCFHy+4xtIlK9BCiTEsig0cRSThlAeRd844mkGUBjFAGsUUTlFA6A8UX3jiBlAFCf6dKEhT/3qb3mf+nOLEpU+1PWHcngNEp9vFrEtJgoJ0Q+Gjwq1Jb6R+nJxxjpPACLidZnIHM7z/XJZT+LXI0W7YRenCuA+GUWC43O0jNOS+LW2m9G5Ygj39ymR+5hQT+JRlnC3pgCi2HITE2pJfJNN3G0rgJhYDX06E99mEo8E4r5ALDOgbyoRLz1t2RcQy+EIGklky2tbAaTEsiAse2YRgx1EBSwAMbpJKoUBsWwmMX4fgDd6EZhANOVajPlqtSOFz+hRjA9g7X8Rq1UDiEfiCNbSiIKvagBR8BEg6lnEqgFEcQDDnkGsVvUnSlfgM4ieCNSZmDiAJBXwOCBWo2lKVC0xGcTjY06sxvN+zRsk9zYD2Gw2ZeIxJ1bFtBzFWtoUbTYF4jEDUqIk1Jwoz9AmSwFUEz1Py4la44uoGlipVJrCFGVJRM/TmChNUD6AlUqMGAGKo+jRbB2JTcUSGgWiFEBhFD1Pa2LCFVgJU/hiRM/TnJgB7HQqSuHx9S+eCNSUWEkDdnAVFbDFiJ5nElHyUWGnIxNbLUr0xLQmKmZoJ4HYIiGinMZEGZhEbPHMIiYO4AkuSmy1TCQ2a4olhvio8ORkXyVE1+IHQ4gdYROshAMoEluxjCKqlpiTSPsSsFQqqYnvtSTGdnnZx4gtQWgkscOFJ2LSCCYRbVtjonKC0s5O0K2MCFQRbVtT4kkc2AlXGQpEKYAy0bY1JqaN4FmUWColEm1bZ2KGLySW4kWItm0AMQXIiHjg1ETb1px4pvJFgZRYkmJE29ad+OUsC4iJMnBEibZtIvFMShaORoQoAs0gSr6LC4mIfCYR355lACXiiGYiUcmTiCNzifIVqCKOwswh0msxkRcjjkYlE4kfv2UAQ+IoVgLxr7xBijoZQE4ciSmJ7/LmqPr47SLNx4gSUEl8/07HQcT/7cu3m/TU/9H0h7/fCb3/59+8MRAE6dGUNHidgw+kgw+Hr/MvpTSxWHfTlz94jx/8shu+0k39klfo0gp6+X+7Hx68T1/JiTgdDKZdTH3xOYSIywE6+kPwAeZEpJcKmrHjlz44ItLpv0FzlTzJlTiw+LOXqx/MDHRw8pgrcWfGz2faRy9ePtDPf764Y+/sL1b0yXSxoG9cLmbr2R2f3nfoVTTfx5HpHhK3WhAv2fks+ArxEDvLoWWtd/hpLvHjmL1vQV+2rNWcLM3hwaOj+Mi/NkfiLX2GT/xhs1kw45AvhnjJoAM7oyOCHhbLaXfMjejRsmaTbT88eEBEsjl/kh8RWWboYc4Xhim7NrfWlvwZ0zfkGTX1+B/vGT0Y+DBGHKDHe/pKnkQswtfabTCqc0qZRATkPFd0nvKPAq9TffaGhXDwcF/ki3VOxPlqtUFDYU12iDQ4T3r9dOloLa3bBzpBJ+RhST8R3Nq6pG+/FQ8e2fq35PLN+e6GLBMrftGgHimJDkEfLZV0+LZkMNFONx/SZnQdop9RrD570/ySX8j5EdfjHl1K+GqJm9A5e0+kazSW5GMY0uHrWZHI1aomshX1gc3rfFdUfirBvragf7XBZzXAo3CPh6tHX8XnPOaRdSeViDdG/CFqQIyewiWdqAN8ea7w8zk+zTVdOnp8CwlKJy7ogTUgosWlx5/TXQRvgFt0hguCxbOVjNkmXG6Ct5tBHPDbEHLR0RsVPDW3ZBV6tCbdcJMRRJkTdbCjBRH/me7oaEayv0Eatr0/WNsxv41bi998pRLvrGB+507EtwB9xOk+hvcq6HaA7nlLvHyyiYyfb/CXLvvUoSb25qjeLOdNI/4t1CrYCoJ7gH5wc21FvnHehJsGI96LB78L33IbbEo/nDiRvkuc0h/njMNTQVcl2y0XwW0bfvmebooT+k75/m2nu70lrfn3Yfhz+fE/n1J9GzwdDgfqNw0GyW98pZ/iQRAEQRAEQRAEQRAEQRAEQRAEQRAEQRAEQRAEQVAB+g+CoxJAeYgz+wAAAABJRU5ErkJggg==;rounded=0;fillColor=#FFE45E;strokeColor=#FF6392;fontColor=#5AA9E6;" vertex="1" parent="1">
          <mxGeometry x="662" y="303" width="76" height="74.99" as="geometry" />
        </mxCell>
        <mxCell id="4q8cgyD3nparRnlQqXy9-28" style="edgeStyle=orthogonalEdgeStyle;rounded=0;orthogonalLoop=1;jettySize=auto;html=1;exitX=1;exitY=0.75;exitDx=0;exitDy=0;entryX=0.5;entryY=0;entryDx=0;entryDy=0;" edge="1" parent="1" source="4q8cgyD3nparRnlQqXy9-1" target="4q8cgyD3nparRnlQqXy9-1">
          <mxGeometry relative="1" as="geometry" />
        </mxCell>
      </root>
    </mxGraphModel>
  </diagram>
</mxfile>
